<svg viewBox="35.9236618 20.398484237536657 332.072 80.28278592375366" xmlns="http://www.w3.org/2000/svg" data-name="Layer 1" id="Layer_1" style="max-height: 500px;/* background: red; */" width="332.072" height="80.28278592375366">
  <defs>
    <style>
      .cls-1 {
        fill: none;
      }

      .cls-1, .cls-2, .cls-3 {
        stroke-width: 0px;
      }

      .cls-2, .cls-3 {
        fill: #fff;
      }

      .cls-3 {
        fill-rule: evenodd;
      }
    </style>
  </defs>
  <g>
    <g>
      <path d="m270.06,60.9c-3.96,0-5.16-3.29-5.16-5.58s1.21-5.58,5.16-5.58,5.17,3.29,5.17,5.58-1.21,5.58-5.17,5.58Zm0-9.89c-2.3,0-3.69,1.82-3.69,4.31s1.39,4.31,3.69,4.31,3.69-1.82,3.69-4.31-1.39-4.31-3.69-4.31Z" class="cls-2"/>
      <path d="m278.36,53.98v6.64h-1.3v-6.64h-1.06v-1.08h1.06v-1.33c0-1.17.74-1.7,2.01-1.7.19,0,.38.02.59.03v1.17c-.16-.01-.37-.03-.53-.03-.56,0-.77.28-.77.9v.96h1.3v1.08h-1.3Z" class="cls-2"/>
      <path d="m282.47,53.98v6.64h-1.3v-6.64h-1.06v-1.08h1.06v-1.33c0-1.17.74-1.7,2.01-1.7.19,0,.38.02.59.03v1.17c-.16-.01-.37-.03-.53-.03-.56,0-.77.28-.77.9v.96h1.3v1.08h-1.3Z" class="cls-2"/>
      <path d="m284.99,51.5v-1.48h1.3v1.48h-1.3Zm1.3,9.12h-1.3v-7.72h1.3v7.72Z" class="cls-2"/>
      <path d="m293.06,55.5c-.16-1.03-.74-1.65-1.83-1.65-1.61,0-2.13,1.54-2.13,2.91s.33,2.97,2.11,2.97c.87,0,1.62-.65,1.85-1.83h1.25c-.13,1.22-.89,2.95-3.14,2.95s-3.45-1.64-3.45-3.87c0-2.39,1.15-4.29,3.7-4.29,2.02,0,2.79,1.48,2.89,2.82h-1.25Z" class="cls-2"/>
      <path d="m302.17,58.2c-.04.37-.4,1.46-1.37,2.11-.35.24-.86.53-2.1.53-2.17,0-3.45-1.64-3.45-3.87,0-2.39,1.15-4.29,3.7-4.29,2.23,0,3.32,1.77,3.32,4.5h-5.64c0,1.61.75,2.54,2.24,2.54,1.22,0,1.95-.94,1.99-1.52h1.3Zm-1.24-2.05c-.07-1.2-.58-2.3-2.16-2.3-1.2,0-2.14,1.11-2.14,2.3h4.3Z" class="cls-2"/>
      <path d="m310.92,52.68c2.46,0,3.59,2.08,3.59,4.07s-1.12,4.07-3.59,4.07-3.59-2.08-3.59-4.07,1.12-4.07,3.59-4.07Zm0,7.03c1.86,0,2.24-1.92,2.24-2.95s-.38-2.95-2.24-2.95-2.24,1.92-2.24,2.95.38,2.95,2.24,2.95Z" class="cls-2"/>
      <path d="m317.58,53.98v6.64h-1.3v-6.64h-1.06v-1.08h1.06v-1.33c0-1.17.74-1.7,2.01-1.7.19,0,.38.02.59.03v1.17c-.16-.01-.37-.03-.53-.03-.56,0-.77.28-.77.9v.96h1.3v1.08h-1.3Z" class="cls-2"/>
      <path d="m325.77,53.98v5.02c0,.61.52.61.78.61h.46v1.02c-.47.04-.84.1-.97.1-1.28,0-1.56-.72-1.56-1.65v-5.09h-1.05v-1.08h1.05v-2.16h1.3v2.16h1.24v1.08h-1.24Z" class="cls-2"/>
      <path d="m334.57,60.62h-1.3v-5.05c0-1.05-.29-1.73-1.54-1.73-1.06,0-2.15.62-2.15,2.57v4.21h-1.3v-10.6h1.3v3.91h.03c.37-.49,1.02-1.25,2.26-1.25s2.7.49,2.7,2.69v5.25Z" class="cls-2"/>
      <path d="m343.04,58.2c-.04.37-.4,1.46-1.37,2.11-.35.24-.86.53-2.1.53-2.17,0-3.45-1.64-3.45-3.87,0-2.39,1.15-4.29,3.7-4.29,2.23,0,3.32,1.77,3.32,4.5h-5.64c0,1.61.75,2.54,2.24,2.54,1.22,0,1.95-.94,1.99-1.52h1.3Zm-1.24-2.05c-.07-1.2-.58-2.3-2.16-2.3-1.2,0-2.14,1.11-2.14,2.3h4.3Z" class="cls-2"/>
      <path d="m267.11,73.4l-1.11,3.08h-1.48l3.99-10.6h1.62l3.84,10.6h-1.56l-1.05-3.08h-4.25Zm3.74-1.27l-1.56-4.66h-.03l-1.7,4.66h3.29Z" class="cls-2"/>
      <path d="m279.71,76.48v-1.12l-.03-.03c-.55.9-1.21,1.37-2.45,1.37-1.14,0-2.51-.55-2.51-2.39v-5.55h1.3v5.12c0,1.27.65,1.7,1.49,1.7,1.64,0,2.13-1.45,2.13-2.57v-4.25h1.3v7.72h-1.22Z" class="cls-2"/>
      <path d="m289.28,76.48h-1.22v-1.06h-.03c-.56,1.05-1.45,1.28-2.2,1.28-2.63,0-3.39-2.47-3.39-4.31,0-2.17,1.17-3.85,3.22-3.85,1.4,0,1.99.87,2.3,1.31l.03-.1v-3.87h1.3v10.6Zm-3.42-.9c.83,0,2.11-.55,2.11-2.6,0-1.25-.21-3.28-2.08-3.28-2.01,0-2.11,1.9-2.11,2.89,0,1.7.66,2.98,2.08,2.98Z" class="cls-2"/>
      <path d="m291.11,67.36v-1.48h1.3v1.48h-1.3Zm1.3,9.12h-1.3v-7.72h1.3v7.72Z" class="cls-2"/>
      <path d="m295.95,69.84v5.02c0,.61.52.61.78.61h.46v1.02c-.47.04-.84.1-.97.1-1.28,0-1.56-.72-1.56-1.65v-5.09h-1.05v-1.08h1.05v-2.16h1.3v2.16h1.24v1.08h-1.24Z" class="cls-2"/>
      <path d="m301.61,68.54c2.46,0,3.59,2.08,3.59,4.07s-1.12,4.07-3.59,4.07-3.59-2.08-3.59-4.07,1.12-4.07,3.59-4.07Zm0,7.03c1.86,0,2.24-1.92,2.24-2.95s-.38-2.95-2.24-2.95-2.24,1.92-2.24,2.95.38,2.95,2.24,2.95Z" class="cls-2"/>
      <path d="m308.14,76.48h-1.3v-7.72h1.22v1.28h.03c.52-.9,1.2-1.51,2.17-1.51.16,0,.24.01.34.04v1.34h-.49c-1.21,0-1.98.94-1.98,2.07v4.49Z" class="cls-2"/>
      <path d="m320.46,70.81h4.65v5.67h-.93l-.34-1.37c-.72,1-2.05,1.65-3.5,1.65-1.82,0-2.7-.66-3.25-1.2-1.62-1.54-1.67-3.35-1.67-4.47,0-2.58,1.57-5.49,5.02-5.49,1.98,0,4.18,1.12,4.49,3.5h-1.39c-.46-1.84-2.01-2.23-3.17-2.23-1.9,0-3.47,1.52-3.47,4.3,0,2.15.71,4.37,3.53,4.37.53,0,1.39-.06,2.17-.68.93-.74,1.17-1.68,1.17-2.82h-3.31v-1.22Z" class="cls-2"/>
      <path d="m333.71,74.06c-.04.37-.4,1.46-1.37,2.11-.35.24-.86.53-2.1.53-2.17,0-3.45-1.64-3.45-3.87,0-2.39,1.15-4.29,3.7-4.29,2.23,0,3.32,1.77,3.32,4.5h-5.64c0,1.61.75,2.54,2.24,2.54,1.22,0,1.95-.94,1.99-1.52h1.3Zm-1.24-2.05c-.07-1.2-.58-2.3-2.16-2.3-1.2,0-2.14,1.11-2.14,2.3h4.3Z" class="cls-2"/>
      <path d="m341.65,76.48h-1.3v-4.75c0-1.34-.38-2.02-1.65-2.02-.74,0-2.04.47-2.04,2.57v4.21h-1.3v-7.72h1.22v1.09h.03c.28-.41,1-1.31,2.33-1.31,1.2,0,2.7.49,2.7,2.69v5.25Z" class="cls-2"/>
      <path d="m350.12,74.06c-.04.37-.4,1.46-1.37,2.11-.35.24-.86.53-2.1.53-2.17,0-3.45-1.64-3.45-3.87,0-2.39,1.15-4.29,3.7-4.29,2.23,0,3.32,1.77,3.32,4.5h-5.64c0,1.61.75,2.54,2.24,2.54,1.22,0,1.95-.94,1.99-1.52h1.3Zm-1.24-2.05c-.07-1.2-.58-2.3-2.16-2.3-1.2,0-2.14,1.11-2.14,2.3h4.3Z" class="cls-2"/>
      <path d="m353.25,76.48h-1.3v-7.72h1.22v1.28h.03c.52-.9,1.2-1.51,2.17-1.51.16,0,.24.01.34.04v1.34h-.49c-1.21,0-1.98.94-1.98,2.07v4.49Z" class="cls-2"/>
      <path d="m356.49,71.11c.06-1.85,1.28-2.57,3.19-2.57.62,0,2.86.18,2.86,2.16v4.44c0,.33.16.46.43.46.12,0,.28-.03.43-.06v.94c-.22.06-.41.15-.71.15-1.15,0-1.33-.59-1.37-1.18-.5.55-1.28,1.26-2.79,1.26-1.42,0-2.42-.9-2.42-2.23,0-.65.19-2.15,2.35-2.42l2.14-.27c.31-.03.68-.15.68-.91,0-.81-.59-1.25-1.81-1.25-1.48,0-1.68.9-1.77,1.49h-1.19Zm4.75,1.43c-.21.16-.53.28-2.14.49-.63.09-1.65.28-1.65,1.25,0,.84.43,1.34,1.4,1.34,1.21,0,2.39-.78,2.39-1.82v-1.27Z" class="cls-2"/>
      <path d="m366.07,76.48h-1.3v-10.6h1.3v10.6Z" class="cls-2"/>
      <path d="m268.42,84.4c2.46,0,3.59,2.08,3.59,4.07s-1.12,4.07-3.59,4.07-3.59-2.08-3.59-4.07,1.12-4.07,3.59-4.07Zm0,7.03c1.86,0,2.24-1.92,2.24-2.95s-.38-2.95-2.24-2.95-2.24,1.92-2.24,2.95.38,2.95,2.24,2.95Z" class="cls-2"/>
      <path d="m275.09,85.7v6.64h-1.3v-6.64h-1.06v-1.08h1.06v-1.33c0-1.17.74-1.7,2.01-1.7.19,0,.38.01.59.03v1.17c-.16-.02-.37-.03-.53-.03-.56,0-.77.28-.77.9v.96h1.3v1.08h-1.3Z" class="cls-2"/>
      <path d="m289.28,84.93c-.4-1.86-1.95-2.2-2.97-2.2-1.92,0-3.47,1.42-3.47,4.21,0,2.49.89,4.41,3.51,4.41.93,0,2.54-.44,3.02-2.91h1.39c-.59,4-3.84,4.18-4.64,4.18-2.4,0-4.77-1.56-4.77-5.64,0-3.26,1.86-5.52,4.94-5.52,2.73,0,4.15,1.7,4.35,3.47h-1.39Z" class="cls-2"/>
      <path d="m292.29,86.97c.06-1.85,1.28-2.57,3.19-2.57.62,0,2.86.18,2.86,2.15v4.44c0,.33.16.46.43.46.12,0,.28-.03.43-.06v.94c-.22.06-.41.15-.71.15-1.15,0-1.33-.59-1.37-1.18-.5.55-1.28,1.26-2.79,1.26-1.42,0-2.42-.9-2.42-2.23,0-.65.19-2.15,2.35-2.42l2.14-.27c.31-.03.68-.15.68-.91,0-.81-.59-1.25-1.81-1.25-1.48,0-1.68.9-1.77,1.49h-1.19Zm4.75,1.43c-.21.16-.53.28-2.14.49-.63.09-1.65.28-1.65,1.25,0,.84.43,1.34,1.4,1.34,1.21,0,2.39-.78,2.39-1.82v-1.27Z" class="cls-2"/>
      <path d="m306.83,92.34h-1.3v-4.75c0-1.34-.38-2.02-1.65-2.02-.74,0-2.04.47-2.04,2.57v4.21h-1.3v-7.72h1.22v1.09h.03c.28-.41,1-1.31,2.33-1.31,1.2,0,2.7.49,2.7,2.69v5.25Z" class="cls-2"/>
      <path d="m308.7,86.97c.06-1.85,1.28-2.57,3.19-2.57.62,0,2.86.18,2.86,2.15v4.44c0,.33.16.46.43.46.12,0,.28-.03.43-.06v.94c-.22.06-.41.15-.71.15-1.15,0-1.33-.59-1.37-1.18-.5.55-1.28,1.26-2.79,1.26-1.42,0-2.42-.9-2.42-2.23,0-.65.19-2.15,2.35-2.42l2.14-.27c.31-.03.68-.15.68-.91,0-.81-.59-1.25-1.81-1.25-1.48,0-1.68.9-1.77,1.49h-1.19Zm4.75,1.43c-.21.16-.53.28-2.14.49-.63.09-1.65.28-1.65,1.25,0,.84.43,1.34,1.4,1.34,1.21,0,2.39-.78,2.39-1.82v-1.27Z" class="cls-2"/>
      <path d="m323.35,92.34h-1.22v-1.06h-.03c-.56,1.05-1.45,1.28-2.2,1.28-2.63,0-3.39-2.46-3.39-4.31,0-2.17,1.17-3.85,3.22-3.85,1.4,0,1.99.87,2.3,1.31l.03-.1v-3.87h1.3v10.6Zm-3.42-.9c.83,0,2.11-.55,2.11-2.6,0-1.25-.21-3.28-2.08-3.28-2.01,0-2.11,1.9-2.11,2.89,0,1.7.66,2.98,2.08,2.98Z" class="cls-2"/>
      <path d="m325.11,86.97c.06-1.85,1.28-2.57,3.19-2.57.62,0,2.86.18,2.86,2.15v4.44c0,.33.16.46.43.46.12,0,.28-.03.43-.06v.94c-.22.06-.41.15-.71.15-1.15,0-1.33-.59-1.37-1.18-.5.55-1.28,1.26-2.79,1.26-1.42,0-2.42-.9-2.42-2.23,0-.65.19-2.15,2.35-2.42l2.14-.27c.31-.03.68-.15.68-.91,0-.81-.59-1.25-1.81-1.25-1.48,0-1.68.9-1.77,1.49h-1.19Zm4.75,1.43c-.21.16-.53.28-2.14.49-.63.09-1.65.28-1.65,1.25,0,.84.43,1.34,1.4,1.34,1.21,0,2.39-.78,2.39-1.82v-1.27Z" class="cls-2"/>
    </g>
    <g>
      <path d="m116.5,50.06h4.66c1.98,0,3,1.22,3,2.67,0,.69-.25,1.67-1.42,2.21.69.28,1.92.77,1.92,2.58,0,1.7-1.25,3.13-3.6,3.13h-4.56v-10.6Zm1.43,4.49h2.58c1.37,0,2.21-.41,2.21-1.71,0-.99-.6-1.55-2.2-1.55h-2.6v3.26Zm0,4.89h3.06c1.49,0,2.24-.75,2.24-1.93,0-1.49-1.31-1.79-2.48-1.79h-2.82v3.72Z" class="cls-2"/>
      <path d="m131.25,60.66v-1.12l-.03-.03c-.55.9-1.21,1.37-2.45,1.37-1.14,0-2.51-.55-2.51-2.39v-5.55h1.3v5.12c0,1.27.65,1.7,1.49,1.7,1.64,0,2.13-1.45,2.13-2.57v-4.25h1.3v7.72h-1.22Z" class="cls-2"/>
      <path d="m135.89,60.66h-1.3v-7.72h1.22v1.28h.03c.52-.9,1.2-1.51,2.17-1.51.16,0,.24.01.34.04v1.34h-.49c-1.21,0-1.98.94-1.98,2.07v4.49Z" class="cls-2"/>
      <path d="m145.88,58.24c-.04.37-.4,1.46-1.37,2.11-.35.24-.86.53-2.1.53-2.17,0-3.45-1.64-3.45-3.87,0-2.39,1.15-4.29,3.7-4.29,2.23,0,3.32,1.77,3.32,4.5h-5.64c0,1.61.75,2.54,2.24,2.54,1.22,0,1.95-.94,1.99-1.52h1.3Zm-1.24-2.05c-.07-1.2-.58-2.3-2.16-2.3-1.2,0-2.14,1.11-2.14,2.3h4.3Z" class="cls-2"/>
      <path d="m147.49,55.29c.06-1.85,1.28-2.57,3.19-2.57.62,0,2.86.18,2.86,2.15v4.44c0,.32.16.46.43.46.12,0,.28-.03.43-.06v.94c-.22.06-.41.15-.71.15-1.15,0-1.33-.59-1.37-1.18-.5.55-1.28,1.26-2.79,1.26-1.42,0-2.42-.9-2.42-2.23,0-.65.19-2.15,2.35-2.42l2.14-.27c.31-.03.68-.15.68-.91,0-.81-.59-1.25-1.81-1.25-1.48,0-1.68.9-1.77,1.49h-1.19Zm4.75,1.43c-.21.16-.53.28-2.14.49-.63.09-1.65.28-1.65,1.25,0,.84.43,1.34,1.4,1.34,1.21,0,2.39-.78,2.39-1.82v-1.27Z" class="cls-2"/>
      <path d="m160.77,60.66v-1.12l-.03-.03c-.55.9-1.21,1.37-2.45,1.37-1.14,0-2.51-.55-2.51-2.39v-5.55h1.3v5.12c0,1.27.65,1.7,1.49,1.7,1.64,0,2.13-1.45,2.13-2.57v-4.25h1.3v7.72h-1.22Z" class="cls-2"/>
      <path d="m174.45,60.66h-1.22v-1.06h-.03c-.56,1.05-1.45,1.28-2.2,1.28-2.63,0-3.39-2.46-3.39-4.31,0-2.17,1.17-3.85,3.22-3.85,1.4,0,1.99.87,2.3,1.31l.03-.1v-3.87h1.3v10.6Zm-3.42-.9c.83,0,2.11-.55,2.11-2.6,0-1.25-.21-3.28-2.08-3.28-2.01,0-2.11,1.9-2.11,2.89,0,1.7.66,2.98,2.08,2.98Z" class="cls-2"/>
      <path d="m181.28,60.66v-1.12l-.03-.03c-.55.9-1.21,1.37-2.45,1.37-1.14,0-2.51-.55-2.51-2.39v-5.55h1.3v5.12c0,1.27.65,1.7,1.49,1.7,1.64,0,2.13-1.45,2.13-2.57v-4.25h1.3v7.72h-1.22Z" class="cls-2"/>
      <path d="m121.99,68.8h1.42l-2.94,7.72h-1.39l-2.82-7.72h1.5l2.01,6.29h.03l2.19-6.29Z" class="cls-2"/>
      <path d="m131.04,74.1c-.04.37-.4,1.46-1.37,2.11-.35.24-.86.53-2.1.53-2.17,0-3.45-1.64-3.45-3.87,0-2.39,1.15-4.29,3.7-4.29,2.23,0,3.32,1.77,3.32,4.5h-5.64c0,1.61.75,2.54,2.24,2.54,1.22,0,1.95-.94,1.99-1.52h1.3Zm-1.24-2.05c-.07-1.2-.58-2.3-2.16-2.3-1.2,0-2.14,1.11-2.14,2.3h4.3Zm-1.83-4.28h-.99l1.31-2.08h1.59l-1.92,2.08Z" class="cls-2"/>
      <path d="m134.17,76.52h-1.3v-7.72h1.22v1.28h.03c.52-.9,1.2-1.5,2.17-1.5.16,0,.24.01.34.04v1.34h-.49c-1.21,0-1.98.94-1.98,2.07v4.49Z" class="cls-2"/>
      <path d="m137.85,67.4v-1.48h1.3v1.48h-1.3Zm1.3,9.12h-1.3v-7.72h1.3v7.72Z" class="cls-2"/>
      <path d="m142.71,69.88v6.64h-1.3v-6.64h-1.06v-1.08h1.06v-1.33c0-1.17.74-1.7,2.01-1.7.19,0,.38.01.59.03v1.17c-.16-.02-.37-.03-.53-.03-.56,0-.77.28-.77.9v.96h1.3v1.08h-1.3Z" class="cls-2"/>
      <path d="m145.23,67.4v-1.48h1.3v1.48h-1.3Zm1.3,9.12h-1.3v-7.72h1.3v7.72Z" class="cls-2"/>
      <path d="m153.3,71.4c-.16-1.03-.74-1.65-1.83-1.65-1.61,0-2.13,1.54-2.13,2.91s.33,2.97,2.11,2.97c.87,0,1.62-.65,1.85-1.83h1.25c-.13,1.22-.89,2.95-3.14,2.95s-3.45-1.64-3.45-3.87c0-2.39,1.15-4.29,3.7-4.29,2.02,0,2.79,1.48,2.89,2.82h-1.25Z" class="cls-2"/>
      <path d="m155.81,71.15c.06-1.85,1.28-2.57,3.19-2.57.62,0,2.86.18,2.86,2.15v4.44c0,.32.16.46.43.46.12,0,.28-.03.43-.06v.94c-.22.06-.41.15-.71.15-1.15,0-1.33-.59-1.37-1.18-.5.55-1.28,1.26-2.79,1.26-1.42,0-2.42-.9-2.42-2.23,0-.65.19-2.15,2.35-2.42l2.14-.27c.31-.03.68-.15.68-.91,0-.81-.59-1.25-1.81-1.25-1.48,0-1.68.9-1.77,1.49h-1.19Zm4.75,1.43c-.21.16-.53.28-2.14.49-.63.09-1.65.28-1.65,1.25,0,.84.43,1.34,1.4,1.34,1.21,0,2.39-.78,2.39-1.82v-1.27Z" class="cls-2"/>
      <path d="m165.65,69.88v5.02c0,.61.52.61.78.61h.46v1.02c-.47.04-.84.1-.97.1-1.28,0-1.56-.72-1.56-1.65v-5.09h-1.05v-1.08h1.05v-2.15h1.3v2.15h1.24v1.08h-1.24Z" class="cls-2"/>
      <path d="m174.71,74.1c-.04.37-.4,1.46-1.37,2.11-.35.24-.86.53-2.1.53-2.17,0-3.45-1.64-3.45-3.87,0-2.39,1.15-4.29,3.7-4.29,2.23,0,3.32,1.77,3.32,4.5h-5.64c0,1.61.75,2.54,2.24,2.54,1.22,0,1.95-.94,1.99-1.52h1.3Zm-1.24-2.05c-.07-1.2-.58-2.3-2.15-2.3-1.2,0-2.14,1.11-2.14,2.3h4.3Z" class="cls-2"/>
      <path d="m181.4,76.52v-1.12l-.03-.03c-.55.9-1.21,1.37-2.45,1.37-1.14,0-2.51-.55-2.51-2.39v-5.55h1.3v5.12c0,1.27.65,1.7,1.49,1.7,1.64,0,2.13-1.45,2.13-2.57v-4.25h1.3v7.72h-1.22Z" class="cls-2"/>
      <path d="m186.04,76.52h-1.3v-7.72h1.22v1.28h.03c.52-.9,1.2-1.5,2.17-1.5.16,0,.24.01.34.04v1.34h-.49c-1.21,0-1.98.94-1.98,2.07v4.49Z" class="cls-2"/>
      <path d="m199.99,75.88c0,1.11-.01,3.88-3.59,3.88-.92,0-2.7-.25-2.95-2.3h1.3c.24,1.22,1.43,1.22,1.74,1.22,2.24,0,2.2-1.8,2.2-2.72v-.32h-.03v.06c-.34.55-1.02,1.03-2.05,1.03-2.63,0-3.39-2.46-3.39-4.31,0-2.17,1.17-3.85,3.22-3.85,1.4,0,1.99.87,2.3,1.31h.03v-1.09h1.22v7.08Zm-3.35-.27c.83,0,2.11-.55,2.11-2.6,0-1.25-.21-3.28-2.08-3.28-2.01,0-2.11,1.9-2.11,2.89,0,1.7.66,2.98,2.08,2.98Z" class="cls-2"/>
      <path d="m208.34,74.1c-.04.37-.4,1.46-1.37,2.11-.35.24-.86.53-2.1.53-2.17,0-3.45-1.64-3.45-3.87,0-2.39,1.15-4.29,3.7-4.29,2.23,0,3.32,1.77,3.32,4.5h-5.64c0,1.61.75,2.54,2.24,2.54,1.22,0,1.95-.94,1.99-1.52h1.3Zm-1.24-2.05c-.07-1.2-.58-2.3-2.16-2.3-1.2,0-2.14,1.11-2.14,2.3h4.3Zm-1.83-4.28h-.99l1.31-2.08h1.59l-1.92,2.08Z" class="cls-2"/>
      <path d="m216.28,76.52h-1.3v-4.75c0-1.34-.38-2.02-1.65-2.02-.74,0-2.04.47-2.04,2.57v4.21h-1.3v-7.72h1.22v1.09h.03c.28-.41,1-1.31,2.33-1.31,1.2,0,2.7.49,2.7,2.69v5.25Z" class="cls-2"/>
      <path d="m224.75,74.1c-.04.37-.4,1.46-1.37,2.11-.35.24-.86.53-2.1.53-2.17,0-3.45-1.64-3.45-3.87,0-2.39,1.15-4.29,3.7-4.29,2.23,0,3.32,1.77,3.32,4.5h-5.64c0,1.61.75,2.54,2.24,2.54,1.22,0,1.95-.94,1.99-1.52h1.3Zm-1.24-2.05c-.07-1.2-.58-2.3-2.16-2.3-1.2,0-2.14,1.11-2.14,2.3h4.3Zm-1.83-4.28h-.99l1.31-2.08h1.59l-1.92,2.08Z" class="cls-2"/>
      <path d="m227.88,76.52h-1.3v-7.72h1.22v1.28h.03c.52-.9,1.2-1.5,2.17-1.5.16,0,.24.01.34.04v1.34h-.49c-1.21,0-1.98.94-1.98,2.07v4.49Z" class="cls-2"/>
      <path d="m231.12,71.15c.06-1.85,1.28-2.57,3.19-2.57.62,0,2.86.18,2.86,2.15v4.44c0,.32.16.46.43.46.12,0,.28-.03.43-.06v.94c-.22.06-.41.15-.71.15-1.15,0-1.33-.59-1.37-1.18-.5.55-1.28,1.26-2.79,1.26-1.42,0-2.42-.9-2.42-2.23,0-.65.19-2.15,2.35-2.42l2.14-.27c.31-.03.68-.15.68-.91,0-.81-.59-1.25-1.81-1.25-1.48,0-1.68.9-1.77,1.49h-1.19Zm4.75,1.43c-.21.16-.53.28-2.14.49-.63.09-1.65.28-1.65,1.25,0,.84.43,1.34,1.4,1.34,1.21,0,2.39-.78,2.39-1.82v-1.27Z" class="cls-2"/>
      <path d="m240.7,76.52h-1.3v-10.6h1.3v10.6Z" class="cls-2"/>
      <path d="m123.51,92.38h-1.22v-1.06h-.03c-.56,1.05-1.45,1.28-2.2,1.28-2.63,0-3.39-2.47-3.39-4.31,0-2.17,1.17-3.85,3.22-3.85,1.4,0,1.99.87,2.3,1.31l.03-.1v-3.87h1.3v10.6Zm-3.42-.9c.83,0,2.11-.55,2.11-2.6,0-1.25-.21-3.28-2.08-3.28-2.01,0-2.11,1.9-2.11,2.89,0,1.7.66,2.98,2.08,2.98Z" class="cls-2"/>
      <path d="m130.35,92.38v-1.12l-.03-.03c-.55.9-1.21,1.37-2.45,1.37-1.14,0-2.51-.55-2.51-2.39v-5.55h1.3v5.12c0,1.27.65,1.7,1.49,1.7,1.64,0,2.13-1.45,2.13-2.57v-4.25h1.3v7.72h-1.22Z" class="cls-2"/>
      <path d="m145.22,84.97c-.4-1.86-1.95-2.2-2.97-2.2-1.92,0-3.47,1.42-3.47,4.21,0,2.49.89,4.41,3.51,4.41.93,0,2.54-.44,3.02-2.91h1.39c-.59,4-3.84,4.18-4.63,4.18-2.4,0-4.77-1.56-4.77-5.64,0-3.26,1.86-5.52,4.94-5.52,2.73,0,4.15,1.7,4.35,3.47h-1.39Z" class="cls-2"/>
      <path d="m148.23,87.01c.06-1.85,1.28-2.57,3.19-2.57.62,0,2.86.18,2.86,2.16v4.44c0,.32.16.46.43.46.12,0,.28-.03.43-.06v.94c-.22.06-.41.15-.71.15-1.15,0-1.33-.59-1.37-1.18-.5.55-1.28,1.26-2.79,1.26-1.42,0-2.42-.9-2.42-2.23,0-.65.19-2.16,2.35-2.42l2.14-.27c.31-.03.68-.15.68-.91,0-.81-.59-1.25-1.81-1.25-1.48,0-1.68.9-1.77,1.49h-1.19Zm4.75,1.43c-.21.16-.53.28-2.14.49-.63.09-1.65.28-1.65,1.25,0,.84.43,1.34,1.4,1.34,1.21,0,2.39-.78,2.39-1.82v-1.27Z" class="cls-2"/>
      <path d="m162.76,92.38h-1.3v-4.75c0-1.34-.38-2.02-1.65-2.02-.74,0-2.04.47-2.04,2.57v4.21h-1.3v-7.72h1.22v1.09h.03c.28-.41,1-1.31,2.33-1.31,1.2,0,2.7.49,2.7,2.69v5.25Z" class="cls-2"/>
      <path d="m164.64,87.01c.06-1.85,1.28-2.57,3.19-2.57.62,0,2.86.18,2.86,2.16v4.44c0,.32.16.46.43.46.12,0,.28-.03.43-.06v.94c-.22.06-.41.15-.71.15-1.15,0-1.33-.59-1.37-1.18-.5.55-1.28,1.26-2.79,1.26-1.42,0-2.42-.9-2.42-2.23,0-.65.19-2.16,2.35-2.42l2.14-.27c.31-.03.68-.15.68-.91,0-.81-.59-1.25-1.81-1.25-1.48,0-1.68.9-1.77,1.49h-1.19Zm4.75,1.43c-.21.16-.53.28-2.14.49-.63.09-1.65.28-1.65,1.25,0,.84.43,1.34,1.4,1.34,1.21,0,2.39-.78,2.39-1.82v-1.27Z" class="cls-2"/>
      <path d="m179.29,92.38h-1.22v-1.06h-.03c-.56,1.05-1.45,1.28-2.2,1.28-2.63,0-3.39-2.47-3.39-4.31,0-2.17,1.17-3.85,3.22-3.85,1.4,0,1.99.87,2.3,1.31l.03-.1v-3.87h1.3v10.6Zm-3.42-.9c.83,0,2.11-.55,2.11-2.6,0-1.25-.21-3.28-2.08-3.28-2.01,0-2.11,1.9-2.11,2.89,0,1.7.66,2.98,2.08,2.98Z" class="cls-2"/>
      <path d="m181.04,87.01c.06-1.85,1.28-2.57,3.19-2.57.62,0,2.86.18,2.86,2.16v4.44c0,.32.16.46.43.46.12,0,.28-.03.43-.06v.94c-.22.06-.41.15-.71.15-1.15,0-1.33-.59-1.37-1.18-.5.55-1.28,1.26-2.79,1.26-1.42,0-2.42-.9-2.42-2.23,0-.65.19-2.16,2.35-2.42l2.14-.27c.31-.03.68-.15.68-.91,0-.81-.59-1.25-1.81-1.25-1.48,0-1.68.9-1.77,1.49h-1.19Zm4.75,1.43c-.21.16-.53.28-2.14.49-.63.09-1.65.28-1.65,1.25,0,.84.43,1.34,1.4,1.34,1.21,0,2.39-.78,2.39-1.82v-1.27Z" class="cls-2"/>
    </g>
    <g>
      <path d="m84.28,65.63c.31.17.64.15.74-.04.12-.19-.05-.49-.35-.67-.31-.15-.64-.15-.74.04-.12.19.04.48.35.66h0Zm-2.84-1.29c-.33-.11-.54-.37-.46-.57.08-.22.41-.29.73-.16.34.12.53.37.47.58-.08.21-.41.28-.73.16h0Zm.93.26l.29-.64,1.11.5-.29.65-1.1-.51h0Zm3.67-8.66c-.32.16-.46,1.09.38,1.04.54-.04.17-.81.17-.81.14-.14.12-.69-.37-1.11-.5-.4-.3-.91-.25-1.06-.15-.12-.5-.45-.63-.58-.09.19-.32,1.26.34,1.85.67.61.36.67.36.67h0Zm-44.22,28.19c.06-.04.04-.04.12-.07.02.32.04.43.33.74-.07-.04-.13-.06-.17-.09l-.28-.57h0Zm.28.57c-.12-.08-.2-.17-.25-.22,0,.3.2.57.46.7l-.21-.48h0Zm.21.48c.2.09.43.11.61.03.03.22.02.22.02.35.09.1.47.56.57.73-.03.29-.03.38-.03.52-1.26-.03-2.05-.94-2.05-1.91-.02-.36.15-.6.39-.77l.49,1.05h0Zm33.55-11.79s.22.02.27.02c0,.15-.15,1.41-.88,1.85l-.03-.99c.35-.13.64-.88.64-.88h0Zm-.83.94c-.15.06-.2.06-.37.08l-.19.8c.19.02.45-.14.56-.88h0Zm11.24,11.14c.22.33.54.43.61.45-.5,1.1-1.31.97-1.54.93l.13-1.07c.15.01.66-.14.81-.31h0Zm-1.28.91l.2-.58-.29-.09s-.53.8-.57.82l.66-.15h0Zm-34.49-27.61c.7.19,1.34-.22,1.51-.36-.29,1.03-1.52,1.17-1.69,1.15.03-.2-.04-.32-.08-.37.08-.08.15-.12.27-.42h0Zm-1.12,19.88c0,.16-.1.24-.19.43-.09.25-.07.5-.06.69,0,0-.91-.37-.96-1.18-.05-.68-.14-.8-.22-.91-.24-.36.07-.46.13-.51.07-.07.01-.14.06-.23,0,0,.06-.07.32-.19,2.09-1.06-.79-2.89-1.21-3.22.48-.96,1.66-1.65,2-1.89-.51-.12-.93-.09-1.19-.05.26-.28.92-.67.92-.67.21.24.37.85,1.62.56.06-.02.12-.02.18-.04.08.11.17.28.61.34-.04.59-.13,2.57.48,4.63-.46.37-.47.28-.75.43-.26.14-.41.55.09.89.29.2.85.48,1.31.7.16.25.89,1.85,1.19,2.12-.45.09-1.13.38-1.59.69-.45-.18-.77-.42-.85-.73-.06-.21-.34-.8-.7-1.01.03.34-.09.49-.1.64-.02.14-.06.35,0,.55-.05,0-.3-.09-.58-.43-.21-.26-.13-1.32-.52-1.63h0Zm-1.26-21.36c-.07.07-.15.12-.21.16-.1-.09-.19-.23-.19-.37,0-.26.23-.48.49-.48.17,0,.32.06.41.21-.08.04-.14.09-.2.17-.04-.09-.12-.13-.21-.13-.12,0-.23.11-.23.23,0,.09.06.17.15.21h0Zm21.98-9.25c.28.53.52,1.09.6,1.2-.58-.24-.93-.89-1.14-1.32.08.03.31.12.54.12h0Zm-13.36,4.61c.29.12.53.18.69.15-.01-.13.04-.23.02-.46-.2,0-.49-.04-.72-.15,0,.19-.03.35,0,.46h0Zm18.19-.28c-.28.12-.54.17-.69.15,0-.13-.04-.22-.02-.48.2.03.49-.03.72-.14,0,.19.03.34,0,.47h0Zm-23.33-1.06c-.83-.51-1.29-1.42-1.49-2.31-.06-.3-.35-.25-.25.06.07.2.42,1.49.8,1.9-.36-.15-2.41-1.26-2.81-1.4-.17-.07-.32.04-.08.2.16.1,2.41,1.2,2.78,1.56-.3.09-1.7.44-2.07.64-.22.14-.19.28.06.23.25-.06,2.17-.77,2.95-.55.3.08.11-.31.11-.31h0Zm25.51,43.88c.06.1.17.16.26.13.11-.04.15-.2.1-.39-.06-.19-.2-.31-.32-.28-.09.03-.14.19-.12.34-.3.12-.61.36-.74.48,0,0-.04-.03-.06-.07.06-.1.18-.46.24-.66.18,0,.31-.13.31-.28s-.15-.26-.34-.25c-.18,0-.33.12-.33.26,0,.1.06.2.19.25-.08.32-.2.55-.29.62-.03-.08-.1-.18-.13-.27.13-.2.13-.79.1-1.05.8-.9,2.18-.8,2.65-.76-.32.2-.64.55-.6,1.26.04.69-.46,1.32-1.27,1.26-.06-.1-.16-.14-.3-.18.1-.18.47-.35.67-.41h0Zm0,0s0,0,0,0h0Zm-.15.82c.88-.41,1.3.44.9.95-.62.82-1.05,1.5-.29,1.66-.2.12-1.99.53-2.22-.54.95-.19,1.88-1.05,1.61-2.07h0Zm-1.1-.27c.22-.6-1.29-1.43-1.62.42-.28,1.54-.84,1.48-.84,1.48,2.11.99,4.59-1.54,2.46-1.9h0Zm-6.46-47.92c.06.02.1.02.13.02l-.13-.02h0Zm0,0c-.48-.12-1.24-.28-2.16-.37-.07,0-.16-.06-.27-.2-.26-.38-.39-.91-.41-1.04,0-.08-.07-.14-.16-.13-.06.02-.12.1-.1.19.02.21.13.63.29.92.03.06-.08.2-.22.2h-.12c-.1,0-.2,0-.29,0-.64-.01-1.22.03-1.75.11-.11.02-.26-.03-.35-.13-.36-.34-.49-.87-.52-1.01,0-.04-.06-.08-.09-.11.08-.13.12-.41.12-.67.21.29.29.61.35.7.02.07.12.18.22.14.05-.03.09-.11.07-.2-.06-.21-.25-.58-.45-.84-.1-.12.01-.31.17-.3.29-.04.58-.07.84-.11.02.1,0,.22.04.28-.28,0-.22.38-.2.46l.15,1.33c.03.13.09.11.29.1.19,0,.26-.18.19-.24-.2-.19-.33-.53-.37-.7-.03-.07.02-.14.08-.15.08-.03.14.02.15.08.04.1.16.44.45.76.04.06.21.22.31.22.08,0,.21-.04.21-.21l-.03-1.03c.3,0,.91-.24.97-.26.13.29.17.57.19.66.01.08.09.15.18.13.07-.02.12-.1.1-.17-.02-.15-.07-.4-.16-.64.06-.03.19-.08.23-.14.03.2,0,.55.42.73l-.08.77c0,.14-.04.36.18.38.2.03.32-.08.27-.15-.16-.25-.2-.6-.2-.79,0-.07.05-.12.12-.13.06,0,.13.05.13.12.02.11.03.48.26.84.3.43.45.22.52.04l.08-.36c.11.07.37.26.53.29,0,.17.04.36.11.53,0,0,.03.12-.12.13l-.13-.02h0Zm0,0s0,0,0,0h0Zm0,0h0Zm-1.45-3.58c.02-.15-.03-.56.48-.69.03-.04-.04-.16-.09-.17.09-.04.31-.16.33-.32.01-.17-.04-.15-.1-.17-.06-.02-.07-.14-.04-.2,0-.04.03-.16-.25-.19-.24-.04-.39-.12-.71-.6.11-.08.56-.24.74-.56,0-.18-.05-.33-.07-.43-.14-.17-.85-.22-1.4.14,0-.09-.06-.25-.03-.38,0,0-.48.24-.68.7-.07.2-.1.36-.13.47-.02.12,0,.33.15.53.17.18.57.66.93.81-.16-.02-.16.29-.1.34-.09.02-.68.27-.91.57-.04-.04-.02-.06-.06-.09.06-.09.2-.52-.31-.52-.08-.05-.34-.28-.62.07.08-.01.61.1.23.25-.1.04-.09.12-.13.18-.21.06-.57.29-.47.78.02-.04.1-.27.33-.31,0,.09.06.19.19.19-.17.12-.09.3-.05.34-.1.07-.16.51.2.81,0-.05-.02-.35.19-.44.15.09.44.26.7-.13.07-.11.26-.37.58-.42,0,.06.05.36-.03.51.17-.04.6-.41.57-.73.06.06.23.22.14.47.1-.07.36-.32.41-.82h0Zm12.95,6.94c-.28-.04-.52-.04-.7,0-.3.09-.11-.31-.11-.31.26-.16.49-.36.68-.57.06.1.16.54.13.87h0Zm.41-1.11c.28-.56.47-1.29.52-1.44.1-.31-.19-.36-.26-.06-.11.54-.33,1.08-.65,1.54.11-.05.29-.04.39-.04h0Zm.93.11c.73-.4,1.58-.8,1.68-.87.23-.15.09-.24-.08-.19-.28.1-1.3.63-2.05,1.02.2,0,.33.02.45.04h0Zm6.4,33.48c-.18.17-.27.45-.26.85.05,1.21,1.46.73,1.42-.05-.11.13-.32.37-.77.39v-.99c.35-.02,1.22.19,1.22,1.02-.02.97-.8,1.88-2.07,1.91.01-.44-.16-2.27-.4-2.85.07-.33.24-.59.48-.78.09.18.33.26.37.51h0Zm-37.3,1.26l-.65-.6s-.06-.07.02-.15c.08-.05.43-.43.8-.04.35.38,0,.8,0,.8,0,0-.07.08-.17,0h0Zm-7.63,4.5l.26-.72.29.78-.54-.06h0Zm20.45-45.83c.18.2.26.09.36.21.04.04.06.07.06.12.44-1.22-.21-1.43-.14-1.58.59-1.36,2.04-2.05,2.99-2.3-.19.15-.21.42-.23.52.45-.2.79-.09,1.01,0-.03-.21-.13-.48-.18-.6.16.13.54.48.63,1.34.07.88.6,1.23.84,1.44-.06.34.14.53.22.61-.3.36-.33.78-.36.91-.03.11-.16.13-.15,0,0-.21-.16-.24-.28-.21-.33-.38-.51-.24-.7-.02.22-.11.37.15.37.2-.13.05-.12.23-.06.28-.16.01-.35.35-.37.45-.57.14-.45.72-.39.85.12-.33.42-.41.51-.42.03.14.08.18.12.21-.15.38.05.87.33,1.04-.04-.29.08-.68.17-.75.01.03.15.12.21.12-.06.73.3.85.48.84-.15-.17-.08-.53,0-.61.52.25.65-.39.56-.72-.09-.32,0-.57.09-.71-.06.16.09.45.15.49.04.06.15.17.15.24.46-.38.3-1.18.23-1.27.41.11.51.35.51.45.42-.42.16-1.32.06-1.48.27-.04.41.15.48.23.14-.75-.47-1.12-.64-1.12.25-.23.07-.43,0-.46-.05-.04-.12-.04-.14-.18-.04-.3-.23-.15-.41-.13-.17,0-.36-.04-.33-.5.03-.46-.08-.99-.18-1.07.18.13.86.21,1.3,0,.45-.24.74.26.76.42.31-.4-.06-.85-.21-.88.2-.3.25-.53.15-.86-.2-.57.98-.29,1.05-.08-.13-1.04-1.2-1.16-1.28-.47-.28-.48-.8-.43-.8-.43,0,0-.09,0-.11-.15-.11-.85-.89-.94-1.04-1,.07.05.22.18.21.34,0,.18-.07.61.12.68-.26-.02-.47-.32-.51-.49-.21-.61-.61-.78-.98-.73.27.05.21.44.18.54-.03.13-.06.3.05.45-1.6-.32-2.52-1.76,0-2.12,0,0,1.22,1.32,2.67.34-.38.14-.6-.08-.74-.26,2.17-.19,1.91-1.5,1.75-1.84,0,.93-1.51,1-1.94.99.48-.43.48-.99.17-1.35.08,1.08-1.39,1.47-2.07,1.59-3.2.54-2.24,2.91.05,3.2.17.02,1.23.17,1.81.29-.45.19-.36.63.06.87-.13-.5.45-.88.7-.47.33,1.15-.85,1.35-1.79.53-.78-.65-1.61-.85-2.07-.66-.45.18-1.37.32-1.9.22,0,.21-.13.46-.28.53.01.73-.7,1.57-.7,1.55,0-.14-.04-.19-.07-.24-.19.69-1.21,1.34-1.32,1.42,0,0,0-.12.03-.18-.03.03-.23.16-.33.23,0,0-.02.11-.02.18-.07.63-.2.73-.36,1.03-.19.31-.48.71-.58,1.17,0-.05-.02-.28-.12-.32.06-.37-.89-.42-.99.04.36-.13.61.18.38.22-.22.04-.23.24-.18.36-.74-.01-.69.87-.39.93.2-.63.54-.38.63-.28-.22.04-.19.35-.16.42-.13.5.15.79.27.84-.12-.17.06-.49.16-.64.15.14.35.09.45.07.04.61.4.68.54.66-.2-.2-.09-.55-.06-.63.43.11.45-.33.4-.45-.03-.11-.03-.39.02-.52.11-.36.44-.93.71-.54.03.04.06.17.06.22.43-.43.36-.88.32-1.11h0Zm3.54,28.37c.09-.05.19-.16.18-.37.11.12.35.03.4-.13-.26.03-.36-.12-.36-.25h.47v-.32h-.11c.05-.49.57-.3.5-.04.7-1.03-.72-1.1-.74.04h-.2c0-.12.01-.42.09-.57.46-.93-.1-1.22-.24-1.35-.12.12-.68.42-.23,1.35.08.15.09.45.09.57h-.19c0-1.14-1.44-1.07-.74-.04-.06-.27.45-.46.49.04h-.11v.32h.48c0,.12-.09.27-.37.25.08.17.31.26.42.13-.02.22.09.32.16.37h0Zm4.69.02c.09-.05.21-.15.16-.36.13.12.36.02.42-.14-.26.02-.36-.13-.36-.27h.47v-.29s-.09,0-.09,0c.03-.51.53-.31.47-.04.71-1.04-.72-1.11-.72.04h-.19c0-.14,0-.42.08-.58.45-.93-.1-1.23-.24-1.34-.12.11-.69.42-.23,1.34.08.16.09.44.09.58h-.21c0-1.16-1.43-1.09-.74-.04-.05-.27.45-.46.5.04h-.11v.29h.48c0,.14-.09.28-.36.27.08.16.31.26.41.14-.02.21.09.32.17.36h0Zm-2.38,1.48c.09-.05.21-.18.18-.42.12.14.39.03.45-.15-.29.03-.38-.13-.38-.26h.51v-.37h-.11c.04-.53.62-.31.53-.03.77-1.13-.8-1.22-.81.04h-.22c0-.15,0-.46.1-.63.5-1.01-.1-1.35-.25-1.46-.14.12-.76.46-.26,1.46.08.18.1.49.1.64h-.22c0-1.26-1.59-1.18-.82-.04-.07-.29.5-.51.54.03h-.12l.02.37h.52c0,.13-.11.29-.41.26.07.19.34.3.46.15-.02.24.1.36.19.42h0Zm-4.2,10.04l.29-.26c0-.63,1.07-1.76,2.33-3.03.38-.37,1.06-1.69,1.26-2.34l.63.44v-.33s1.43-.17,1.43-.17l-.23-.22.47-.44-.59-.24.14-.3-1.02.22.76-1.14-.36.08-.09-.71-.59.37-.17-.32-.42,1.29-.45-.93-.13.29-.56-.3-.06.65-.33-.05.77,1.22-.26.21.68.2c-.47,1.17-1.16,2.03-1.32,2.21-.61.72-1.73,1.42-1.94,1.91l-.03-2.59.79.12-.15-.31,1.2-.78-.31-.11.22-.6-.64.05v-.34s-.81.66-.81.66l.16-1.35-.29.23-.37-.58-.37.58-.29-.23.17,1.35-.8-.66v.34s-.64-.05-.64-.05l.22.6-.32.11,1.19.78-.14.31.79-.12v2.59c-.24-.48-1.36-1.19-1.96-1.91-.16-.18-.85-1.04-1.32-2.21l.69-.2-.26-.21.74-1.22-.31.05-.06-.65-.56.3-.15-.29-.45.93-.42-1.29-.17.32-.59-.37-.08.71-.36-.08.74,1.14-1.01-.22.15.3-.6.24.47.44-.24.22,1.43.17v.33l.63-.44c.19.65.89,1.96,1.26,2.34,1.28,1.27,2.34,2.4,2.34,3.03l.28.26h0Zm-6.91-47.19l-.69.13.16-.34-1.29-.85.33-.1-.23-.66.69.06v-.35s.87.7.87.7l-.16-1.45.29.24.41-.62.39.62.31-.24-.17,1.45.87-.7v.35l.7-.06-.25.66.34.1-1.28.85.16.34-.75-.11v.77c.26.01.86.34.88,1.24.03.59.49.95.78.95,0,.29-.02.62.31.85,0,.21.07.34-.29.65.12.16.26.31.45.35-.18.93-.67.83-.79.77.22-.15.19-.35.19-.49-1.06.28-1.34-.55-1.34-.77s-.2-.38-.29-.35c.12-.16.37-.17.54-.12-.4-.6-.47-1.61-.45-1.88,0,0,.32-.09.36-.22-.98.08-.63-.93-.26-.8-.48-.14-.69.07-.72.14-.49.34-.35,1-.23,1.14.1-.16.22-.25.61-.24.1,1.34-.09,1.93-.29,2.13-.03-.36-.28-.63-.57-.65,0,0,.54-.38.59-.53-.31-.03-.51-.38-.44-.54-.75-.04-.45-.87-.24-1.08-.09-.47.15-.58.49-.66v-.7h0Zm7.99,27.37c-.18-.3-.2-.45-.74-.42.25.46.37.41.73.44v-.02h0Zm0,.02h.03c-.96-.08-.43.88-.12.33-.18,0-.19-.2.1-.26l.04-.02v-.06s.05,0,.05,0v-.04c-.1-.3.09-.39.17-.23.31-.52-.75-.52-.26.25h0Zm.03,1.92c-.45.17-.17.35-.1.24,0,.26-.34.22-.34.02.01-.11.08-.18.16-.22-.12.03-.24.02-.35-.09.11-.12.23-.12.35-.1-.07-.04-.14-.1-.16-.21,0-.2.34-.24.34.01-.06-.12-.35.07.1.24v.11h0Zm-.04,1.86c-.35.11-.49.06-.64.58.55-.08.51-.22.64-.56v-.02h0Zm0,.02s0,0,0-.02c-.36.89.71.67.29.2-.04.19-.24.13-.23-.17v-.03h-.04v-.08h-.04c-.32,0-.35-.21-.16-.24-.41-.45-.72.56.16.31v.02h0Zm6.18-3.84c.34-.07.47-.02.68-.51-.54.03-.52.17-.7.48l.02.03h0Zm-.02,3.83c.18.29.19.44.73.44-.24-.48-.37-.42-.72-.46v.02h-.01Zm.01-.02h-.02c.94.1.44-.86.12-.33.17,0,.2.21-.1.26h-.04v.07h-.06v.04c.11.29-.1.38-.18.2-.32.53.74.55.26-.22v-.02h.01Zm-.04-1.85c.45.17.15.35.11.24,0,.26.33.22.33.02,0-.11-.06-.18-.15-.22.11.03.24.02.35-.09-.11-.12-.24-.12-.35-.1.09-.04.15-.1.15-.21,0-.2-.33-.24-.33.01.05-.12.35.07-.11.24v.11h0Zm-3-1.99c.18-.45.36-.17.24-.1.26,0,.21-.34.02-.34-.11,0-.18.06-.22.16.03-.12.02-.24-.1-.34-.11.1-.11.22-.09.34-.04-.09-.1-.16-.22-.16-.21,0-.24.34,0,.34-.12-.07.06-.36.24.1h.11Zm.03,3.92c.18.44.37.15.24.08.26.01.22.35.01.34-.11,0-.18-.06-.21-.15.02.11.01.22-.09.33-.13-.11-.12-.22-.09-.33-.05.09-.12.15-.22.15-.2,0-.25-.32.02-.34-.12.07.06.35.23-.08h.1s0,0,0,0h0Zm2.99-3.91s0,.01,0,.03c.46-.85-.64-.74-.27-.24.08-.16.27-.1.2.19v.03l.07.02-.03.06h.03c.32.03.33.24.13.25.36.5.79-.47-.11-.31l-.02-.03h0Zm-3.19,2.28c-.1,0-.29.06-.36.12-.04.01-.1.07-.12.12-.02.07-.06.11-.04.16-.19,0-.1-.17-.24-.17-.08-.13-.23,0-.23,0,.15-.02.09.11.06.15-.05-.07-.18-.11-.18,0,0,.03-.05,0-.09.03-.09.06-.03.16-.03.16.03-.1.11-.09.12-.07.03.02.05,0,.09,0,.05.01.06.06.04.08-.12,0-.14.12-.07.21.02-.09.07-.11.12-.13.1.05.13,0,.18-.03.02.04.03.1,0,.14.12.03.18-.14.2-.18,0,0,.08.06.06.13.15-.07.16-.17.15-.24,0,0,.1.02.12.05.07-.11.04-.2,0-.25.05-.05.17-.1.2-.1-.03-.09.03-.14.04-.18h0Zm2.43-1.55c-.05.04-.23.24-.16.28.02.01.03-.02.03-.04.07,0,.09.17-.04.2-.11.01-.1-.1-.1-.1,0,.04-.13.1-.22.11.02-.08.07-.2.13-.21,0,0-.13.01-.11-.09.02-.12.2-.1.2-.04-.03-.01-.05.02-.03.03.03.06.25-.1.31-.16v.03h0Zm0,2.45c-.06-.05-.28-.2-.32-.16,0,.03.02.04.05.04,0,.05-.18.08-.2-.04-.02-.1.11-.1.11-.1-.05,0-.11-.12-.13-.2.09,0,.21.06.22.1,0,0,0-.12.1-.1.13.02.11.19.04.19,0-.03,0-.05-.04-.04-.05.04.11.23.18.28v.02h0Zm0-1.18c-.36.14-.2.28-.13.19-.01.21-.31.19-.3.01,0-.08.07-.14.13-.18-.11.03-.21.02-.3-.07.1-.1.2-.1.3-.08-.06-.05-.13-.09-.13-.17,0-.17.29-.21.3,0-.06-.09-.23.04.13.19v.11h0Zm-2.24-1.26c.11.19.23.07.2.04.09.01.1.18-.06.19-.11,0-.13-.09-.16-.15.02.08.02.2-.05.26-.09-.05-.09-.18-.07-.26-.04.06-.05.15-.18.15-.15,0-.14-.17-.06-.19-.03.03.1.13.2-.04h.18Zm.04,2.45c.1-.19.23-.12.2-.09.07-.02.09-.17-.06-.17-.11,0-.14.07-.18.14.02-.09.02-.2-.05-.28-.08.07-.08.19-.06.28-.03-.07-.05-.14-.17-.14-.14,0-.13.15-.05.17-.04-.03.08-.1.2.08h.18Zm-2.44-2.48c.06.05.27.22.31.16.01-.03,0-.04-.05-.03,0-.06.19-.1.21.04,0,.1-.12.09-.12.09.06.01.12.13.12.21-.07,0-.21-.07-.21-.1,0,0,0,.12-.09.1-.14-.02-.12-.2-.05-.2,0,.03,0,.04.02.03.07-.03-.11-.23-.15-.28v-.02h0Zm.01,2.47c.05-.06.22-.25.16-.29-.03-.01-.03.02-.03.04-.07,0-.09-.18.04-.19.11-.03.09.1.09.1.02-.05.15-.1.22-.11,0,.08-.07.2-.12.2,0,0,.13,0,.12.1-.02.12-.2.1-.21.04.03,0,.06,0,.04-.04-.04-.04-.25.11-.3.15h-.02Zm.02-1.18c.35.08.18.28.13.19,0,.21.29.19.28.01,0-.08-.05-.14-.13-.18.11.03.21.02.32-.07-.11-.1-.2-.1-.32-.08.08-.05.13-.09.13-.17,0-.17-.28-.21-.28,0,.05-.09.22.08-.13.19v.11h0Zm-16.81,3.7c-.54.29-3.05,1.43-3.59,2.66.28-.07.82-.19,1.21-.16-.35.16-1.26.92-1.4,1.2-.09-.12-.45-1.42-.45-2.07-.13,1-.21,1.62.29,2.81.49,1.18.36,1.33.4,1.6.02.28.23.51.32.61.09.1.3,1.13-.5,1.71.1.39-1.74,2.28-2.53,2.89-.64.5.86,2.94.92,3.26.04.26.42.39.67.1.25-.3.39-.55.65-.25.08-.07.64-.07.74.57-.19-.12-.54-.2-.81.04-.27.26-.64.28-.7.26.15.09.64.09,1.02-.11.38-.2.61.03.57.3.2-.02.63-.17.77.56.12.55-.12.67-.12.67-.1-.22-.54-.36-.69-.44,0,0,.02.02-.14.16-.05.04-.2,0-.29-.07-.16-.12-.19-.27-.45-.37-.65-.2-.58-.2-.68-.33.09.33.53.56.78.66.24.11.29.31.28.4.15.14.35.44.17,1.15-.06-.12-.42-.12-.54-.26-.12-.12-.16-.57.15-.87-.48-.02-.59.56-.43.96-.27-.19-.39-.33-.4-.51-.02-.11,0-.72-.73-.9-.75-.17-.47-.09-.55-.15.12.2.67.4.81.48.11.07.11.51.11.67.18-.05.61.34.15,1.33-.02-.15-.15-.47-.35-.48-.2-.04-.12-.48.03-.63-.25.03-.45.38-.35.77-.43-.09-.95-.71-1.18-1.24-.22-.52-.37-.6-.54-.75,0-.3-.18-1.51-.41-1.94-.02.12-.22.16-.35.38-.1.16-.1.44-.05.62-.13-.15-.48-.81-.35-1.25.09-.3.04-.56.07-.8.01-.37-.06-.89-.16-1-.07.23-.32.4-.46.48-.15.07-.3.36-.26.54-.1-.28-.42-1,.33-2.06.18-.18.15-.51.06-.76-.1-.24.02-.48.12-.53.1-.05.14-.15.14-.25,0-.11.13-.38.33-.41.2-.02,2.04-.02.94-4.49-.59,2.66-4.81,3.95-3.86-.3.04-.15.04-.32-.03-.47-.32-.64-.5-2.06.45-3.03-.09.23-.12.67.1.9.21.23.32.62.28.79.53-.85.44-1.3.36-1.69-.08-.4.04-1.08.73-1.57-.05.2-.05.58.07.77.13.17.18.32.16.53,1.08-1.56,1.2-3.63-.38-4.08-1.49-.43-1.24,2.06.17,1.34-.05.49-.47,1.58-1.91.57.12.71.12,3.65-2.33,2.33.59.15.99-.45.85-1.54-.15-1.09-.15-1.39-.11-1.65-.44.06-1.53-.44-.74-1.78.15.41.73,1.28,1.34.41,1.74-2.53,7.2.54,3.93,4.8-4.67,6.07-.26,6.96.89,1,.25-1.29,2.22-2.88,3.33-3.37.54.48,1.68,1,2.42.59-.14-.39-1.04-1.39-.55-2.57.41.39,2.13,1.58,3.62-.11-.24-.04-1.39.05-1.73-2.17.29.24,1.85.45,2.38,2.47.2.74.35.85.55,1.19.21.36.59,1.09.79,1.53.2.45,1.14,1.15,1.44,1.44.29.3.8.94,1.1,1.89.36-.16,1.49-.25,1.19,1.63-.1-.15-.5-.3-.74-.19.17.19.31.61,0,.81.06.15.03.92-.69,1.06,0-.24-.05-.54-.1-.79-.29.15-.85.2-1.09-.75,0,.25-.36.45-.36.45,0,0-.45.14-.05.85-.58-.04-1.01-.65-.9-1.79.16-1.63-.52-1.83-.64-1.58-.15.26-.05.71.03.83-.3-.12-.71-.77-.77-1.45-.06-.68-.41-1.15-.5-1.33.02.16-.03.43-.09.69-.08.24-.04.69.07.85-.2-.14-1.08-.72-1.13-1.42-.04-.55,0-.63-.09-.87h0Zm26.11,3.2l.94-.37s-.41-.1-.79-.2c-.02.14-.08.49-.15.58h0Zm.27-2.03l.93-.23c.04.12.23.68-.31.8-.5.11-.59-.4-.62-.57h0Zm-.36,5.75l.93.23c-.03.12-.1.7-.64.57-.49-.13-.34-.62-.29-.8h0Zm-2.27,3.55l.93.29s-.28-.43-.54-.79l-.38.5h0Zm4.03,10.41c.44.25.68.69.91,1.08.22.37,1.26.04,1.22-.49-.06-.51-.12-.93,0-1.44-.1-.17-.37-.1-.43,0-.12-.1-.36-.05-.46.1-.23-.14-.37,0-.44.16-.26-.09-.4.06-.43.24-.3-.11-.53.28-.37.36h0Zm-24.01,4.98c-.06.1-.18.16-.26.13-.12-.04-.15-.2-.09-.39.06-.19.18-.31.3-.28.1.03.15.19.12.34.32.12.61.36.73.48,0,0,.04-.03.07-.07-.07-.1-.19-.46-.23-.66-.17,0-.31-.13-.31-.28s.15-.26.35-.25c.18,0,.34.12.34.26,0,.1-.08.2-.2.25.07.32.21.55.28.62.03-.08.1-.18.14-.27-.14-.2-.16-.79-.12-1.05-.78-.9-2.17-.8-2.64-.76.32.2.65.55.61,1.26-.05.69.45,1.32,1.27,1.26.05-.1.15-.14.29-.18-.09-.18-.47-.35-.66-.41h0Zm0,0s-.01,0,0,0h0Zm.14.82c-.87-.41-1.29.44-.91.95.62.82,1.05,1.5.31,1.66.2.12,1.99.53,2.22-.54-.95-.19-1.89-1.05-1.62-2.07h0Zm1.11-.27c-.22-.6,1.27-1.43,1.62.42.28,1.54.84,1.48.84,1.48-2.12.99-4.58-1.54-2.46-1.9h0Zm12.32.61c.36-.3,1.34-1.02,1.75-1.46-.05,1.56,1.12,1.14,1.25.53,1.11-.31.29-1.08-.19-1.06,1.38-.91.44-1.3.06-1.33-.67-1.14-1.27.07-1.15.59-1.02-1.44-1.3-.13-1.26.21-1.15.61.2,1.24.67.93-.77.83-2.78,1.98-3.41,2.07.09-.08.91-.86,1.23-1.93.61-2.01,1.7-2.62,2.04-2.9-1.12.12-2.05,1.31-2.25,1.64-.2.35-.73,1.29-.96,1.53.02-1.51-.84-2.12-1.13-2.21.24.31.34.88.21,1.18-.06.14-.12.36-.15.59-.13-.32-.3-.71-.56-1.05-.23-.33-1.15-1.5-2.26-1.6.33.27,1.43.86,2.07,2.85.35,1.07,1.17,1.84,1.27,1.91-.64-.07-2.68-1.2-3.46-2,.47.29,1.82-.35.66-.94.04-.34-.28-1.65-1.27-.19.12-.51-.49-1.71-1.15-.57-.37.04-1.32.44.08,1.35-.48-.04-1.28.75-.17,1.04.15.61,1.33,1,1.24-.55.41.45,1.41,1.12,1.78,1.42-2.06.12-4.43-.06-4.61-.08.31-.08.67-1.47.55-2.09,0,0-.8.7-1.74-.19-1.13-1.1-1.41.51-1.17.78.17-.16,1.1-.31,1.49.79.17.47.3,1.04.39,1.25.32.06,1.17.13,1.79.06-.37.09-1.35.99-1.55,1.57.34-.2.57-1.26,3.66-1.33-.39.1-1.54.82-2.05,1.11-.51.32-1.88.84-2.25.77.87.19,2.59-.18,3.4-.6.81-.41,1.98-1,3.43-.93-.3.29-2.55,1.39-3.13,1.43-.56.03,2.97-.03,2.97-.03.27-.17.94-.55,1.35-.93.54.47,1.26.83,1.38.9,0,0,3.54,0,2.97-.03-.57-.02-2.83-1.09-3.15-1.4,1.44-.07,2.64.5,3.45.89.81.41,2.52.76,3.4.54-.37.07-1.75-.42-2.26-.71-.51-.3-1.56-.97-1.97-1.07,3.12.08,3.63,1.16,3.95,1.36-.19-.59-1.18-1.49-1.54-1.57.61.08,1.46,0,1.78-.06.09-.21.21-.78.38-1.25.4-1.1,1.34-.95,1.51-.79.24-.28-.04-1.88-1.18-.78-.92.9-1.73.19-1.73.19-.12.62.24,2.01.54,2.09-.17.02-2.95.17-5,.05h0Zm-15.12-6.15c-.43.25-.68.69-.91,1.08-.22.37-1.26.04-1.19-.49.06-.51.1-.93-.03-1.44.09-.17.37-.1.43,0,.12-.1.37-.05.45.1.25-.14.38,0,.46.16.25-.09.4.06.41.24.31-.11.54.28.38.36h0Zm-3.47-3.27l-.35-.69.74.4-.4.29h0Zm26.87-30.58v-1.11c-.09-.29-.29-.57-.4-.68v1.59c.08.03.28.16.4.19h0Zm-.94-.51v-1.8c-.06-.06-.23-.17-.39-.22v1.62c.09.11.34.36.39.4h0Zm-.39,3.56v1.28c-.34.06-.7.11-1.03.14.36.21,1.37,1.08,1.42,1.13v-3.32s-.39.55-.39.77h0Zm-15.65,5.2c-.18,0-.41.02-.41.02.07-.03.08-.05.09-.12-.15.12-.37.12-.51.12.02-.02.12-.05.13-.12-.12,0-.19.02-.26.06-.09.05-.15.08-.23,0-.05-.02-.16.02-.14.15-.17-.13-.03-.26.04-.26-.03-.13.11-.13.14-.15-.09-.09-.08-.18-.04-.18-.05-.09-.18-.05-.18-.05,0,0,.26-.24.38-.03.05,0,.1.03.08.13.02.04-.11.08.28.09.14,0,.44,0,.44,0,0,.12.06.28.18.32h0Zm2.67-.32c.08-.1.45-.13.53-.12.03,0,.06,0,.09.02-.06,0-.12.04-.13.11,0,.27.23.21.2.1.28.23.03.23-.06.23h-.62c.16-.04.12-.1.2-.12-.38,0-.38.12-.51.12h-.53c-.06,0-.05-.07-.07-.07-.07-.02-.14,0-.16.02.04-.09.12-.12.2-.1,0-.06.12-.06.13,0,.05.08.28.06.29.04,0-.04-.14-.1-.01-.14.01-.05-.07-.06-.12-.03,0-.03.21-.16.24,0,.12-.04.09.09.06.1.17-.1.48-.04.5-.03-.07-.1-.15-.12-.22-.12h0Zm-3.34-.69s.04-.2.19-.09c.07.03.14-.07.14-.11.08.04.08.14.02.21.06.05,0,.14-.06.12-.08.02-.24.22.13.39-.11.03-.27,0-.43,0,.05-.12-.02-.33-.17-.37-.05.02-.1-.03-.12-.03-.04,0-.13,0-.14.07-.04-.07-.02-.14.04-.18.04-.02.09-.04.13-.02.05-.1.2-.12.29,0h0Zm5.91-.06h-3.14c-.11.01-.16.08-.06.13-.04.08-.3.02-.35-.13-.13.15-.36.15-.39.09.09,0,.14-.1.21-.12-.06,0-.31-.05-.28-.3,0,0,.11.14.22.15h3.71c.1,0,.23-.02.26.06.08-.06.35,0,.34.27-.04-.06-.24-.09-.24-.04,0,.13-.08.22-.3.22-.49,0-.96.02-1.46.02,0,0,.28.34.49.31.21,0,.51-.12.9-.12.15,0,.27.03.35-.03.01,0,.07-.04.06-.09.06.06.06.17-.05.22-.03.01-.04.07,0,.09.04.03.12.02.15.05.04.03.05.05.05.08.02.03.18.08.06.24,0-.07-.04-.13-.12-.13,0,.02-.03.03-.03.04-.18.03-.21-.1-.22-.13,0,0-.03.02-.02.06.02.13-.14.11-.18.07-.03.03-.1.04-.09.09-.12-.07-.05-.13,0-.18-.03-.04-.03-.12.07-.1.06-.03.17-.09-.07-.08-.14.01-.45.1-.64.18-.1.06-.27.12-.42.11-.39,0-.55-.43-.59-.47-.02-.05-.11-.09-.18-.1-.19-.02-.4,0-.46.04.01-.04.07-.09.11-.11-.65.06-1.22.26-1.27.28-.11.06-.26.13-.41.17.06-.04.07-.12.07-.2.17-.04.24-.2.27-.31.72-.17,1.26-.2,1.51-.2.23,0,.46,0,.46,0,.47,0,1.22,0,1.68,0,.07,0,.12-.02.12-.07,0-.06-.04-.08-.12-.08h0Zm-5.25,2.69h-.41c.07-.03.08-.05.09-.12-.15.12-.37.13-.51.13.02-.01.12-.05.13-.12-.12-.02-.19.02-.26.06-.09.06-.15.08-.23,0-.05-.03-.16.04-.14.16-.17-.12-.03-.27.04-.27-.03-.13.11-.14.14-.14-.09-.09-.08-.18-.04-.19-.05-.07-.18-.04-.18-.04,0,0,.26-.24.38-.03.05,0,.1.03.08.13.02.03-.11.09.28.09.14.02.44,0,.44,0,0,.12.06.29.18.33h0Zm2.67-.32c.08-.1.45-.14.53-.13.03,0,.06,0,.09.02-.06,0-.12.04-.13.11,0,.27.23.2.2.1.28.24.03.24-.06.24h-.62c.16-.04.12-.1.2-.13-.38,0-.38.13-.51.13h-.53c-.06,0-.05-.07-.07-.07-.07-.03-.14.01-.16.02.04-.09.12-.12.2-.1,0-.06.12-.07.13-.01.05.08.28.07.29.05,0-.05-.14-.09-.01-.15.01-.04-.07-.06-.12-.03,0-.03.21-.16.24,0,.12-.04.09.09.06.1.17-.1.48-.04.5-.02-.07-.09-.15-.11-.22-.11h0Zm-3.34-.69c0-.05.04-.2.19-.09.07.02.14-.07.14-.12.08.04.08.14.02.21.06.04,0,.14-.06.13-.08.03-.24.23.13.4-.11.02-.27.01-.43,0,.05-.12-.02-.34-.17-.37-.05,0-.1-.04-.12-.04-.04,0-.13,0-.14.07-.04-.07-.02-.14.04-.17.04-.04.09-.04.13-.03.05-.09.2-.12.29,0h0Zm5.91-.05h-3.14c-.11.01-.16.08-.06.13-.04.07-.3.02-.35-.13-.13.15-.36.15-.39.08.09.01.14-.1.21-.12-.06,0-.31-.06-.28-.31,0,0,.11.14.22.16h3.71c.1,0,.23-.03.26.05.08-.04.35,0,.34.28-.04-.07-.24-.1-.24-.04,0,.12-.08.22-.3.22-.49,0-.96.02-1.46.02,0,0,.28.34.49.32.21,0,.51-.13.9-.13.15,0,.27.03.35-.02.01-.02.07-.04.06-.1.06.05.06.18-.05.22-.03.01-.04.07,0,.1.04.02.12,0,.15.04.04.03.05.06.05.1.02.03.18.06.06.22,0-.06-.04-.12-.12-.12,0,0-.03.03-.03.04-.18.02-.21-.11-.22-.14,0,.01-.03.03-.02.06.02.14-.14.12-.18.07-.03.02-.1.04-.09.11-.12-.07-.05-.14,0-.19-.03-.04-.03-.11.07-.09.06-.04.17-.11-.07-.09-.14.01-.45.09-.64.18-.1.05-.27.12-.42.12-.39-.02-.55-.44-.59-.48-.02-.04-.11-.1-.18-.1-.19-.03-.4,0-.46.04.01-.04.07-.09.11-.11-.65.05-1.22.27-1.27.28-.11.06-.26.13-.41.18.06-.06.07-.13.07-.2.17-.04.24-.21.27-.31.72-.17,1.26-.19,1.51-.19.23,0,.46,0,.46,0,.47,0,1.22,0,1.68,0,.07,0,.12-.03.12-.08,0-.06-.04-.08-.12-.08h0Zm-5.25,2.71c-.18,0-.41.02-.41.02.07-.03.08-.06.09-.12-.15.12-.37.12-.51.12.02-.02.12-.05.13-.12-.12-.02-.19,0-.26.06-.09.05-.15.07-.23,0-.05-.02-.16.02-.14.15-.17-.12-.03-.27.04-.25-.03-.14.11-.14.14-.14-.09-.1-.08-.19-.04-.2-.05-.08-.18-.04-.18-.04,0,0,.26-.24.38-.02.05,0,.1.02.08.12.02.04-.11.09.28.09.14,0,.44,0,.44,0,0,.12.06.29.18.33h0Zm2.67-.32c.08-.11.45-.14.53-.13.03,0,.06.02.09.03-.06,0-.12.03-.13.11,0,.26.23.21.2.09.28.25.03.25-.06.25h-.62c.16-.03.12-.11.2-.12-.38,0-.38.12-.51.12h-.53c-.06,0-.05-.07-.07-.07-.07-.04-.14,0-.16.02.04-.09.12-.12.2-.1,0-.07.12-.07.13,0,.05.08.28.05.29.04,0-.04-.14-.09-.01-.15.01-.03-.07-.06-.12-.02,0-.03.21-.16.24,0,.12-.05.09.08.06.1.17-.1.48-.06.5-.04-.07-.1-.15-.11-.22-.11h0Zm-3.34-.69c0-.06.04-.2.19-.1.07.03.14-.06.14-.11.08.04.08.14.02.22.06.05,0,.14-.06.12-.08.03-.24.23.13.39-.11.02-.27,0-.43,0,.05-.12-.02-.34-.17-.37-.05,0-.1-.04-.12-.04-.04-.01-.13,0-.14.07-.04-.07-.02-.14.04-.18.04-.02.09-.03.13,0,.05-.12.2-.14.29-.02h0Zm5.91-.06h-3.14c-.11.02-.16.08-.06.14-.04.07-.3.02-.35-.14-.13.16-.36.16-.39.09.09.01.14-.09.21-.12-.06,0-.31-.04-.28-.29,0,0,.11.13.22.15h3.71c.1,0,.23-.02.26.06.08-.06.35,0,.34.27-.04-.05-.24-.1-.24-.03,0,.12-.08.21-.3.22-.49,0-.96,0-1.46,0,0,0,.28.36.49.33.21,0,.51-.12.9-.12.15,0,.27.02.35-.03.01-.01.07-.04.06-.09.06.05.06.17-.05.21-.03.02-.04.08,0,.1.04.02.12.02.15.04.04.02.05.05.05.1.02.02.18.06.06.21,0-.05-.04-.13-.12-.13,0,.03-.03.04-.03.04-.18.04-.21-.1-.22-.12,0,.01-.03.02-.02.07.02.13-.14.11-.18.07-.03.02-.1.02-.09.1-.12-.07-.05-.14,0-.19-.03-.04-.03-.1.07-.1.06-.03.17-.1-.07-.09-.14.02-.45.09-.64.18-.1.07-.27.12-.42.12-.39,0-.55-.43-.59-.47-.02-.04-.11-.09-.18-.1-.19-.02-.4,0-.46.05.01-.05.07-.08.11-.12-.65.07-1.22.27-1.27.28-.11.06-.26.15-.41.19.06-.06.07-.14.07-.21.17-.03.24-.21.27-.31.72-.18,1.26-.2,1.51-.2.23.01.46.01.46.01.47-.01,1.22-.01,1.68-.01.07,0,.12-.02.12-.08,0-.06-.04-.08-.12-.08h0Zm-9.27-10.49v-1.3c-.11.11-.34.52-.39.65v.89c.09-.05.32-.2.39-.24h0Zm0,1.51c-.05-.13-.39-.54-.39-.54v3.27c-.43.06-.8.19-1.02.43,0-.1-.07-.32.3-.65-.25-.04-.79.34-1.15,1.41-.36,1.06-.47.89-.64.94.38.16,1.15.6,1.28,1.82.34-.64,1.6-1.96,1.61-1.97v-4.7h0Zm.92-2.2v-1.3c-.11.03-.33.16-.38.24l-.02,1.44c.15-.1.33-.26.39-.38h0Zm1.3,5.04c-.36-.05-.83-.12-1.3-.15v-1.33c0-.14-.3-.47-.39-.52v3.34s.09-.06.09-.06c.47-.44,1.02-.89,1.6-1.27h0Zm29.76,7.95l.12-.46-.79-.18-.12.45.79.19h0Zm.43.77h-.46v.82s.48,0,.48,0l-.02-.82h0Zm-.11,2.02l-.47-.07-.11.81.47.07.11-.81h0Zm-.47,2.02l-.45-.15-.25.77.44.16.25-.78h0Zm-.77,1.95l-.42-.25-.4.71.43.24.39-.7h0Zm-.93,1.67l-.4-.27-.45.69.39.26.46-.68h0Zm-1.15,1.62l-.4-.27-.46.67.41.27.45-.68h0Zm-1.24,1.67l-.38-.28-.47.67.39.27.46-.66h0Zm-.91,1.46l-.47-.06-.1.8.48.08.09-.82h0Zm.75,1.85l-.07-.48-.8.15.07.47.8-.15h0Zm2.07-1.26s-.22-.31-.39-.5c-.16.11-.52.37-.66.49-.25.22.08.78.42.52.34-.26.63-.51.63-.51h0Zm-1.15-25.17c-.12-.37.28-.41.34-.18.53-.95-1.22-.06-.34.18h0Zm-.73,30.74l.69-.53-.25.8-.44-.28h0Zm2.28.7s.3-.78.32-.81c.02-.04.05-.06.11-.04.02.02.61.02.36.66-.2.49-.77.29-.77.29-.03,0-.04-.04,0-.1h0Zm-9.35-5.37l.46-.75.06.89-.53-.14h0Zm3.16-.08l-1,1.76s-.09.13.02.2c.11.07.54.34,1.14-.5.59-.84.25-1.28-.16-1.46h0Zm-19.48-1.5l-1.04,1.55c-.05.07-.09.09-.22-.02-.12-.12-.36-.62.14-1.28.49-.65.93-.52,1.08-.42.1.07.04.17.04.17h0Zm4.62-57.47c-.12,0-.21.05-.29.13.02-.02.02-.04.02-.06,0-.2-.16-.35-.35-.35-.15,0-.27.07-.33.18,0,0,.01-.04.01-.06,0-.19-.16-.36-.36-.36-.17,0-.3.13-.35.29,0-.19-.17-.33-.35-.33-.2,0-.37.18-.37.41-.04-.14-.18-.2-.33-.2-.2,0-.36.16-.36.35,0,.07.04.13.06.2-.08-.11-.16-.14-.27-.14-.19,0-.36.16-.36.36,0,.12.06.23.16.29-.03-.01-.07-.02-.12-.02-.21,0-.36.16-.36.35,0,.15.1.29.24.34-.14.04-.25.19-.25.35,0,.19.16.35.36.35-.12.05-.21.17-.21.32,0,.19.17.36.37.36.05,0,.13-.02.18-.05l.11.4c-.18.04-.32.22-.32.41,0,.23.19.43.42.43.04,0,.08,0,.12-.02l.14.5c-.06.08-.09.16-.09.26,0,.19.11.33.28.4l-.11.4s.41.37.41.37c-.41.16-.51,1.75.66,1.64.2-.03.53-.04.53-.04h4.62s.35.03.54.05c1.18.12,1.08-1.46.66-1.63,0,0,.37-.37.4-.37l-.11-.4c.17-.06.29-.2.29-.39,0-.09-.04-.19-.12-.26l.13-.5s.07.01.11.01c.23,0,.42-.18.42-.41,0-.2-.13-.37-.31-.41l.11-.4s.12.05.19.05c.2,0,.36-.16.36-.36,0-.14-.08-.25-.2-.31.2,0,.36-.16.36-.35,0-.17-.12-.31-.27-.35.14-.05.23-.18.23-.34,0-.2-.16-.36-.36-.36-.04,0-.09.01-.12.03.1-.07.16-.18.16-.3,0-.2-.16-.37-.35-.37-.11,0-.2.03-.27.13.04-.05.05-.12.05-.2,0-.2-.16-.35-.36-.35-.15,0-.28.08-.34.2.02-.23-.14-.4-.35-.4-.18,0-.34.13-.35.32-.04-.15-.18-.28-.35-.28-.2,0-.35.16-.35.35v.07c-.05-.12-.18-.19-.31-.19-.2,0-.37.14-.37.36,0,.02.01.05.02.06-.06-.07-.16-.13-.26-.13l-.77-1.08.69.23v-1.35s-.7.23-.7.23l.35-.74h-1.5l.34.74-.67-.23v1.35s.66-.23.66-.23l-.77,1.08h0Zm-.56,3.68c.09.7.97.41,1.09.2v-2.61c-1.65-1.17-4.23-1.72-3.41,1.27l.44-.06.28,1.7c.28.21,1.09.09,1.03-.45-.11-.75-.77-.21-.35.08-.96-.02-.55-1.55.28-.91-.37-.59,0-1.03.15-1.24.19.17.65.51.41,1.17.7-.78,1.41.59.49.83.33-.41-.46-.73-.4.02h0Zm2.51,1.72v-.65h-1.45v.65h1.45Zm-2.42.04c.32-.02.59-.17.59-.35-.02-.17-.29-.28-.64-.27-.33.03-.56.2-.56.36.01.18.32.28.61.26h0Zm-1.42.19l-.29-.29.1-.35.56-.08.08.66-.45.06h0Zm4.83-.2c-.33-.02-.59-.16-.57-.34.01-.17.3-.29.62-.27.35.01.58.18.57.35-.02.19-.31.28-.62.26h0Zm1.41.2l.26-.28-.09-.36-.56-.07-.08.66.47.05h0Zm-1.47-2.01c-.09.7-.95.44-1.08.24l-.03-2.62c1.66-1.18,4.23-1.75,3.43,1.25l-.44-.06-.26,1.69c-.28.22-1.14.34-1.04-.47.11-.75.77-.2.37.08.94-.03.54-1.56-.3-.92.38-.59,0-1.02-.14-1.24-.19.17-.65.53-.42,1.18-.69-.79-1.39.6-.48.83-.34-.41.45-.74.39.03h0Zm-5.04,12.58c-.08.19-.47.42-.61.42,0,0,.23-.18.18-.6-.04-.41.1-.76.16-.85-.2.07-.36.3-.37.37-.27-.54.04-.77.12-.88.05-.06.26-.18.25-.53-.2,0-.4.18-.53.39-.16-.39.03-.82.32-.99.16-.1.38-.25.43-.35-.43-.11-.28-.65-.18-.88.11-.23.12-.52,0-.6.21.03.41-.02.66.16-.17-.15,0-.5.11-.51,0,0-.08-.15-.1-.16l.08-.12c-.05-.04-.08-.08-.06-.14,0-.04.03-.06.04-.09v-.17s-.02,0-.04,0c-.08-.02-.12-.1-.1-.16.01-.07.07-.12.14-.1v-.15h-.07c-.06-.01-.11-.07-.09-.15,0-.04.04-.07.09-.08-.06,0-.1-.08-.08-.14,0-.04.05-.09.11-.09-.04-.03-.06-.08-.04-.12.02-.08.09-.12.16-.1,0,0,.02,0,.03.02-.03-.03-.03-.07-.03-.12.02-.07.08-.1.15-.08.04,0,.05.02.07.04,0,0,0-.04,0-.06.02-.06.08-.1.16-.09.04.01.09.06.09.11.02-.08.08-.12.14-.11.07.01.11.07.1.13.03-.05.08-.07.15-.06.05,0,.1.07.08.14t-.02.01c.05-.03.08-.04.13-.04.06.02.09.08.08.15v.04s.06-.04.1-.04l.29-.21h-.24s.11-.46.11-.46l.23.18-.02-.36.45.11-.19.31.29-.06-.11.45-.22-.09.16.33s.08.03.09.06v-.03c0-.05.08-.1.15-.1.04.02.08.05.08.1,0,0,0-.01,0-.02.03-.07.09-.1.15-.09.05.02.09.06.09.12.01-.06.09-.11.13-.07.07.02.12.08.09.17.03-.04.09-.06.12-.05.08.02.11.09.08.15,0,.02,0,.04,0,.05,0-.03.05-.03.08-.02.06,0,.1.08.1.14,0,.04-.04.07-.08.09h.05c.07.02.1.09.08.15,0,.04-.05.08-.1.1.04.02.07.07.05.12,0,.07-.08.12-.15.09.05.03.06.08.05.13-.02.06-.08.1-.14.09-.03,0-.05-.03-.05-.04l-.07.12s.08.1.07.16c0,.07-.09.12-.17.1,0,0-.03,0-.04,0l-.08.14v.1c-.01.05-.06.1-.12.11v.13s-.17.12-.17.12c.09.05.06.32-.05.44.04,0,.41.04.54.1-.16.04-.3.24-.32.67-.03.41-.17.44-.31.46.65.72.2,1.25.04,1.33.06.26-.2.81-.3.93.02-.25-.23-.48-.34-.53.11.95-.58,1.48-.73,1.57.12-.17.1-.54.02-.69-.42,1.24-1.35,1.41-1.8,1.41.3-.12.61-.78.41-1.41h0Zm2.44-5.15c-.08.24-.34.07-.37,0l.19-.79c.63-.26,1.36-.21.98.58l-.08-.03-.23.53c-.12.06-.36-.05-.3-.22.1-.25.27-.02.12.05.32.06.29-.47-.03-.32.18-.16.09-.34.04-.42-.07.04-.25.12-.21.36-.17-.31-.52.09-.24.24-.06-.17.22-.21.14.03h0Zm-1.14-.28c-.04.25.28.21.34.16l.19-.78c-.44-.51-1.11-.82-1.13.06h.09l-.04.58c.07.1.35.12.38-.06.03-.25-.24-.13-.13,0-.3-.1-.04-.56.18-.28-.09-.22.08-.33.15-.38.05.07.16.22.03.42.31-.2.43.31.1.31.15-.1-.1-.28-.13-.03h0Zm-.32,2.03c.16,0,.29-.14.29-.3,0-.17-.13-.31-.29-.31-.17,0-.3.13-.3.31,0,.16.12.3.3.3h0Zm.95.3c.16,0,.3-.14.3-.31,0-.16-.14-.29-.3-.29s-.31.14-.31.29c0,.17.15.31.31.31h0Zm-1.47,1.68c.93.04,1.06-1.05,1.05-1.19-.08-.04-.17-.12-.22-.24-.06.04-.28.04-.32.12-.07.2-.11.44-.07.66.03.23-.09.51-.43.65h0Zm1.16-.79c.07.03.36.14.4-.09.05-.16.23-.05.22.07-.02.12-.19.53-.7.23l.07-.22h0Zm-.92-.21l-.02.22c-.19,0-.81-.02-.5-.54.07-.12.31-.09.23.06-.06.13-.06.27.29.26h0Zm-6.2,15.66c-.78.17-2.16,1.16-2.16,2.4-.28-.2-.48-.41-.61-.66-.21.21-1.03-.17-1.37-.41-.34-.24-1.21-.57-1.74-.24.08-.29,0-1.45-.61-1.7.41,0,1.2-.58,1.52-1.04.18.13.49.37.62.66.04-.32-.03-1.19-1.03-1.94.5-.25,1.17-.74,1.37-1.45.09.42,1.24,1.16,1.77,1.16-.28.5-.69,2.23-.61,2.73.12-.21.69-1.33,1.11-1.65.25.29,1.15.33,1.43.08-.28.41-.32,1.65.3,2.06h0Zm-3.18,1.18c-.29-.23-1.29-1.28-2.46-1.48-.14-.02-.19-.14.01-.12.2.03,1.2.12,1.8.67.13.11.22.11.22-.03s-.05-1.11-.05-1.4c0-.29-.09-1.43-.28-1.69.25.27.56.6.59,1.74.02,1.17-.02,1.29.27,1.78.09.13.2-.01.2-.01.27-.39,1.15-1.39,1.57-1.47.2-.04.09.1.03.13-.04.02-1.17.83-1.58,1.87-.1.25-.31,0-.31,0h0Zm9.03-7.94l.08.3c.05.21-.14.47-.43.32-.36-.21-.5-.58-.55-.67-.04-.06-.1-.09-.16-.06-.07.03-.1.1-.06.16.06.16.25.48.48.65,0,0,.04.15-.18.12-.31-.03-.53-.34-.66-.58-.1-.19-.13-.38-.13-.55-.05-.08-.12-.28-.14-.51-.24.39-.16.91.09,1.3-.24.84-1.4,2.08-1.69,2.37-.35.02-1.18-.1-1.53-.2-.33.47-.95.91-1.16.96.42.13.72.85.74,1.05.57.06,1.65-.31,1.82-.38-.22.22-1.15.67-1.45.73.14.27.06,1.22-.03,1.31.29-.2,1.19-.12,1.37-.09.05-.44.69-1.27.83-1.38.02.36-.31,1.35-.38,1.45.7.1.7.51.72.6.3-.68.84-.82.98-.87.04.1.29.37.36.46-.07.21-.27,2.14-.27,2.19,0,.05.1.19.14.02.05-.16.42-1.39.54-1.72,0,0,.06.08.18.14-.05.3-.19,1.5-.19,1.66-.33.04-.78.49-.83.6-.18-.29-.34-.41-.52-.54.2-.2.61-1.37.69-1.65.08-.28-.23-.34-.36-.06-1.35,2.68-1.97.78-1.91.47-.63.32-1.21.03-1.35-.2,0,.64-.53.91-.98.93.5,1.13,1.44,1.13,1.73,1.13-.69.52-1.76-.09-1.96-.34-.18.28-.78.63-1.16.78.31.26.57.84.61,1.01.36-.04,1.28-.27,1.64-.4-.34.49-.71.81-1.04,1.04.64.59.69,1.15.69,1.38.48-.86,1.68-.99,1.94-.96-1.28-1.36.45-2.75.67-2.84.35.13.85.62.99.78-1.77.99-1.89,2.31-1.83,3.07.77-.47,2.12-.96,2.65-1.07,0,0,.31.73.33.99.1-.02,2.13-.17,2.82.39.62.5.82.24,1,.15.16.09.38.35,1-.15.69-.56,2.71-.41,2.81-.39.02-.26.33-.99.33-.99.83.27,1.92.61,2.66,1.06.06-.78-.05-2.08-1.83-3.06.15-.15.64-.64.99-.78.21.09,1.95,1.48.67,2.84.25-.03,1.46.1,1.94.96,0-.23.05-.79.68-1.38-.33-.23-.7-.54-1.02-1.04.35.12,1.28.35,1.63.4.03-.17.31-.75.61-1.01-.38-.15-.99-.5-1.16-.78-.2.25-1.28.86-1.96.34.29,0,1.22,0,1.71-1.13-.42-.02-.96-.29-.96-.93-.15.23-.73.52-1.34.2.05.32-.57,2.22-1.92-.47-.12-.28-.44-.22-.36.06.09.28.51,1.45.7,1.65-.18.13-.34.26-.53.54-.04-.11-.47-.56-.82-.6,0-.15-.13-1.35-.18-1.66.11-.05.17-.14.17-.14.12.34.51,1.56.54,1.72.04.17.15.03.15-.02,0-.06-.18-1.98-.26-2.19.08-.08.32-.36.37-.46.14.05.66.2.97.87.03-.09,0-.5.72-.6-.07-.1-.4-1.09-.39-1.45.14.12.79.94.84,1.38.17-.04,1.07-.11,1.37.09-.09-.09-.15-1.04-.04-1.31-.3-.06-1.23-.51-1.44-.73.17.07,1.24.44,1.82.38.02-.2.31-.92.73-1.05-.19-.05-.84-.5-1.16-.96-.36.11-1.17.22-1.53.2-.29-.29-1.26-1.25-1.49-2.09.66-.67.22-1.62-.06-1.8-.16-.1-.23.03-.18.1.18.3.17.76.16.98,0,.09-.08.16-.16.15-.08-.01-.15-.08-.15-.17,0-.08,0-.36-.06-.69-.06.18-.19.39-.49.36,0,.06-.03.26-.03.26-.02.19-.05.58.13.98.04.08.11.29.36.16.11.28.82,1.53,1.16,1.7-.38-.07-1.45-.25-2.23-1.41-.11,0-.22,0-.25.04-.43-.59-1.24-.58-1.39-.58,0,0,.08.26.12.36-.05,0-.17-.03-.28-.03-.27-.22-.73-.39-.84-.4-.07.11-.11.32-.12.45-.03,0-.1-.02-.19,0h0c-.08-.37-.43-.55-.53-.59-.31.09-.42.46-.46.57-.05,0-.14.02-.23.02,0-.07,0-.31-.03-.43-.41-.05-.85.31-.91.41-.07-.05-.36-.05-.47-.05,0,0,.04-.14.05-.3-.21,0-.68.16-.83.24.03-.07.03-.17.07-.26.03-.02.16-.06.3-.11.13-.03.22-.15.13-.29-.12-.14-.2-.32-.27-.5-.2.08-.48.08-.5.05h0Zm3.17,7.93c-.59,0-1.91.04-2.4-.21-.49-.24-1.15.64-.75,1.94-.49,0-1.03.05-1.65.75.66.17,1.32,1.09,1.41,1.97,1.07.04,2.16.06,2.63.5.31.26.52.25.76-.03.23.28.43.29.75.03.47-.44,1.56-.46,2.63-.5.08-.88.75-1.8,1.41-1.97-.62-.7-1.15-.75-1.64-.75.4-1.3-.26-2.18-.75-1.94-.5.25-1.82.21-2.4.21h0Zm-.04,4.08l.99.17-.14-.31,1.2-.8-.32-.1.22-.6-.64.05v-.33l-.81.66.16-1.35-.29.23-.37-.58-.37.58-.29-.23.17,1.35-.8-.66v.33l-.64-.05.22.6-.32.1,1.19.8-.14.31.99-.17h0Zm-8.06-.3c.17-.58.81-1.63.98-1.84-.28.21-1.86.05-2.04-.01-.18-.06-.35-.03-.2.11.34.29,1.46.29,1.7.29-.34.48-.56,1.45-.56,1.45,0,.07.09.12.12,0h0Zm1.67-2.73s-.22.21-.32.31c-.23,0-.92-.17-1.21-.65-.16-.24.13-.12.13-.12,0,0,.52.52,1.4.45h0Zm1.06-4.27c.08.17.25.38.25.38-.07.15-.23.68-.28.91-.04.24-.17.13-.15-.01,0-.15.2-1.11.18-1.28h0Zm1.61-3.63c.12-.05.32-.1.55-.17-.77,1.59-2.08,1.81-2.49,1.9.32-.16,1.13-1.6,1.25-1.89.07.05.15.1.22.13-.28.54-.52,1.14-.61,1.23.51-.2.87-.76,1.08-1.19h0Zm1.46.11c0,.12-.02.3-.27.44.17-.03.15-.12.48,0-.16.07-.18-.15-1.96,1.93-.24.29.02.67.02.67,0,0,1.1,2,1.45,2.42.07.08.26.08.26.08l.14.26c-.32.08-.81.16-1.48-.69-.66-.85-1.18-1.89-1.31-2.18-.12-.29-.2-.43.12-.79.31-.36,1.79-1.73,2.04-1.73,0-.07-.11-.24.51-.41h0Zm1.54.4c-.12,0-.35,0-.41.04.1-.06.14-.06.14-.44-.12.03-.53.21-.5.48-.07-.13-.24-.18-.51-.1.12.08.15.3,0,.49-.15.2-1.12,1.24-1.3,1.61-.15.37.05.59.08.67.03.06,1.13,2.42,1.34,2.71.22.34,1.04.45,1.39.14-.04-.1-.11-.34-.11-.34-.12.04-.41.17-.53-.08-.12-.25-.79-2.11-.88-2.4-.09-.31,0-.54.09-.75.1-.26.71-1.8,1.21-2.04h0Zm.76,5.74s-.24.02-.3-.14c-.24-.72-.94-2.89-.41-4.1.43-.94.14-1.37,0-1.52.2-.09.41-.09.52-.01-.17-.12,0-.48.19-.56.19.08.35.44.17.56.1-.08.32-.08.53.01-.16.15-.43.58,0,1.52.53,1.21-.17,3.38-.41,4.1-.05.15-.29.14-.29.14h0Zm.75-5.74c.16-.04.39.04.47.07-.11-.06-.2-.09-.19-.47.11.03.53.21.5.48.07-.13.24-.18.5-.1-.12.08-.15.3,0,.49.16.2,1.12,1.24,1.29,1.61.16.37-.05.59-.08.67-.02.06-1.13,2.42-1.33,2.71-.23.34-1.05.45-1.41.14.03-.1.12-.34.12-.34.12.04.4.17.53-.08.11-.25.78-2.11.87-2.4.1-.31,0-.54-.08-.75-.11-.26-.71-1.8-1.2-2.04h0Zm1.55-.4c0,.12.01.3.26.44-.16-.03-.14-.12-.46,0,.14.07.16-.15,1.95,1.93.24.29-.01.67-.01.67,0,0-1.1,2-1.45,2.42-.07.08-.27.08-.27.08l-.14.26c.33.08.82.16,1.48-.69.66-.85,1.19-1.89,1.32-2.18.12-.29.19-.43-.12-.79-.32-.36-1.79-1.73-2.05-1.73,0-.07.09-.24-.51-.41h0Zm3.05,3.52c-.06.17-.25.38-.25.38.06.15.24.68.28.91.04.24.17.13.15-.01-.01-.15-.2-1.11-.19-1.28h0Zm.24-1.06c.83.26,2.32-.07,2.45-.08.11,0,.12.07-.01.14-.34.12-1.89.26-2.13.21.43.59,1.21,1.56,1.28,1.66.07.08-.02.17-.12.06-.26-.29-1.18-1.49-1.54-1.65.06-.09.11-.19.06-.34h0Zm.84,5.34s.22.21.3.31c.25,0,.93-.17,1.24-.65.14-.24-.15-.12-.15-.12,0,0-.52.52-1.4.45h0Zm1.66,2.73c-.17-.58-.81-1.63-.97-1.84.27.21,1.85.05,2.04-.01.18-.06.35-.03.19.11-.34.29-1.46.29-1.69.29.34.48.55,1.45.55,1.45.03.07-.08.12-.12,0h0Zm-13.8-8.07c-.83.26-2.3-.07-2.45-.08-.11,0-.12.07.02.14.33.12,1.89.26,2.13.21-.43.59-1.2,1.56-1.27,1.66-.08.08,0,.17.1.06.27-.29,1.18-1.49,1.56-1.65-.08-.09-.12-.19-.08-.34h0Zm-10.07,2.63s-1.44-.17-1.94.49c-.41-.73-.96-.58-1.46-.58.17-.2.34-.82.26-1.15-.37.25-1.4,1.24-1.49,1.57-.79-.54-1.57-.13-1.82.04-.05-.3-.41-1.03-.75-1.44.29-.09,1.23-.42,1.56-.71-.41-.17-1.15.08-1.77.2-.18-.54-.87-1.12-1.2-1.45.37,0,1.28-.62,1.53-.83.33.29,1.07.54,1.32.54-.13-.25-.62-.74-.87-.82.05-.21.08-.78-.08-1.12.2.25,1.41.34,1.82.21.08.34.57,1,.95,1.19,0,0-.12-.33-.25-.7,2.36.33,3.51-1.32,3.72-1.78.41,1.07,1.81,1.03,2.23.95-.28.59.04,1.62.24,2.07-.16.16-.32.28-.44.33-.18-.3-.67-1.3-.49-1.86-.19.02-1.2-.1-1.43-.55-.11.21-.62.68-.9.78.11.29.66,1.23.87,1.46-.46,0-1.04-.42-1.54-1.27-.19.13-1.06.49-1.61.39.15.24.68,1.21.47,1.54.8-.23,1.4-.26,2.29.47-.52.2-1.34.45-1.89.31.13.58.15.99.03,1.15.37-.03.52.08.67.26.64-.26,1.6-.45,1.94-.32-.14.12-.14.14-.22.17.08.16.16.36.22.43h0Zm-5.25-3.93c.41.69,1.49,1.43,1.78,1.6.32.16.08.14-.05.2-.14.05-1.46.66-1.96,1.4-.11.17-.39.13-.25-.07.14-.22,1.06-1.17,1.2-1.3-.37-.02-2.31-.44-2.57-.55-.25-.11-.25-.19.03-.14.27.06,2.24.25,2.46.25-.17-.22-.8-1.07-.86-1.27-.05-.19.15-.22.23-.1h0Zm3.91,11.17c-.48-.08-.45.68-.27.75-.18-.07-.99-.41-.88-1.02-.05.2-.77.32-1.23.19.15-.04.52-.26.56-.53.05-.27.05-.57.3-.73-.17-.02-.28.13-.4.16-.11.04-.35.06-.57-.22.1.05.31-.04.41-.21.1-.2.36-.69.93-.36-.14-.16-1.76-1.21-4,.44-.46-.41-.92-.74-.79-2.07.22.43.85.93,1.76.23-.41.03-1.47-.56-1.18-1.39.06.16.61.98,1.64.71-.31-.17-.92-.66-.47-1.4.03.22.47.9,1.32.9-.1-.13-.35-.54-.25-.96.08.19.5.55,1.34.48.85-.04,1.68.62,1.79.74.16,0,1.51.15,1.67.15.14,0,.32.56-.14.54.16.12.65.47.12,1.22.03.19-.2.9-.38.95-.18.04-.14-.17-.12-.28.03-.09,0-.38,0-.38-.18.07-.75-.01-.79-.06-.05-.05-.6-.06-.62.61.12-.1.61-.24.79-.27.21-.03-.02.81-.02.81-.11.08-.51.22-.57.23.2.05.77.13.9-.2.13-.3.03-.43-.02-.48.12.02.56.03.42.74.12,0,.61.29.46.95-.1-.12-.46-.25-.67-.19-.19.07-.55.28-1.03-.05h0Zm.14-3.74c.21-.06.46-.02.77.29-.08-.04-.55-.39-1.02.26-.46.63-1.04.55-1.22.41.07,0,.15-.02.24-.04-.09-.13-.18-.32-.18-.5,0-.42.34-.76.75-.76.27,0,.51.14.65.35h0Zm-.04,4.59c1.91-.27,2.68-.42,3.6.99-.27-.15-1.12-.37-1.76-.15.14.15,1.05.62,1.56.87.52.23,1.63,1.58.91,3.16-.01-.5-.39-1.69-1.42-2.23-1.05-.55-1.94-1.09-2.16-1.32.22.38.56,1.54.64,2.22.06.67.71,1.28,1.33,1.36-.29.14-2.59,1.02-3.17-2.06.06.62-.37,1.89-.44,2.21-.09.32-.16,1.4.64,1.96-.54.02-2.28-.12-2.09-3.16-.22.32-1.21,1.82-.19,3.05-1.35-.26-1.68-1.05-1.67-1.81-1.24-.7-1.31-1.65-1.11-2.4,0,0-.05-.04-.08-.06-1.61-1.82-.04-5.9,2.82-5.37-.2.21-.45.4-.65.36.18.33.31.67.77.87-.12.09-.45.38-.79.44.18.21.56.93,1.75.66.09.27.41.77,1.64.93-.05-.14-.14-.39-.14-.52h0Zm-5.24,2.47c.18-.49.44-.85.51-.94.17-.22,1.24-1.16,1.34-1.51-.79.17-2.26.73-1.85,2.45h0Zm1.06,2.34c-.76-.63-.12-1.79.47-2.4.63-.66.73-.71,1.02-1.34-.06.65-.87,2.17-1.04,2.48-.08.11-.36.66-.44,1.26h0Zm30.23-12.83c.78.17,2.14,1.17,2.14,2.4.29-.2.5-.42.62-.66.2.21,1.04-.17,1.36-.42.33-.25,1.2-.57,1.74-.25-.08-.29,0-1.44.61-1.69-.42,0-1.2-.58-1.53-1.03-.16.12-.5.37-.62.66-.03-.33.05-1.2,1.05-1.94-.51-.25-1.17-.74-1.36-1.45-.09.41-1.25,1.16-1.78,1.16.29.5.7,2.23.62,2.73-.12-.22-.71-1.33-1.11-1.65-.26.29-1.16.32-1.45.08.29.41.33,1.66-.29,2.06h0Zm3.2,1.19c.28-.22,1.29-1.28,2.45-1.49.15-.01.2-.14-.01-.1-.2.02-1.19.12-1.8.66-.13.1-.23.1-.23-.03,0-.14.07-1.11.06-1.4,0-.28.09-1.42.29-1.71-.27.29-.57.61-.59,1.77-.03,1.15.02,1.27-.28,1.77-.08.13-.2-.02-.2-.02-.26-.39-1.14-1.39-1.57-1.48-.17-.02-.07.11-.02.14.05.02,1.18.84,1.59,1.87.09.26.31,0,.31,0h0Zm-34.57,41.34s-.05-.08-.08-.09c-.04-.01-.08,0-.1.02-.18.11-.81.17-.56-.61.27-.77.74-.37.81-.18.01.04.04.07.07.09.04.02.1,0,.12-.03.03-.02.06-.07.06-.11,0-.04-.04-.08-.04-.1-.16-.13-.41-.71.4-.71.83.02.58.59.42.71-.03.04-.06.06-.06.1,0,.05.03.09.07.11.03.03.07.04.11.02.04,0,.07-.04.09-.08.07-.19.55-.6.79.19.24.79-.38.72-.55.61-.02-.02-.06-.03-.12-.02-.04.02-.06.05-.08.09,0,.04,0,.09.02.12.02.04.05.05.11.05.21.02.73.34.06.81-.66.48-.79-.12-.74-.33,0-.03,0-.08-.02-.12-.03-.03-.07-.03-.12-.03-.04,0-.09,0-.11.04-.02.04-.03.08-.02.11.05.21-.09.82-.75.33-.66-.47-.12-.8.09-.81.03,0,.07-.02.1-.05.03-.04.03-.08,0-.12h0Zm.26.07c-.06-.1-.1-.2-.1-.3v-.03l-.35-.25h.44c.04-.1.15-.16.25-.2l.15-.4.12.4c.13.03.24.11.3.2h.41l-.33.23v.04c0,.13-.05.24-.12.33l.12.37-.3-.24c-.07.03-.12.04-.19.04s-.14-.02-.2-.04l-.33.22.13-.38h0Zm8.01-2.14c.18.03.72.06.6,0-.25-.09-.43-.39-.5-.61.5-.09.71-.65.77-.99l.63.4-.3-.7.6-.34h-1.13c-.98.72-1.91-.2-1.67-.9l-.79-.16.28.2-.87-.05.64.43-.84.62.91-.2c-.34.68.15,1.37.32,1.46-.22.25-.45.23-.66.14.18.45.77.29.93.22.02.29,0,.59-.06.7.18-.05.44-.38.49-.56.18.85.89,1.83,1.84,2.04.08.01-.34.32-.64.2-.53-.13-1.32-1-1.53-1.25-.56.35-.69-.31-.72-.57-.67-.05-.9-1.1-.84-1.28-.09.07-.42.1-.89-.22-.45-.29-.73-.85-1.89-.83.85.44,1.36,1.09.69,2.06.47.04,1.08.53.68,1.28.42-.02,1.35.04,1.02,1.1.3-.25,1.14-.65,1.45.3.18-.19.67-.39,1.5-.29-.55.3-3.92,1.49-4.03-.75-.46.25-.21.93-.11,1.19-.25-.07-.62-.12-.9-.27.06-.44-.13-.71-.3-.83.44-.1.78-.49.84-.74-.2-.15-.68-.29-1.09-.09.09-.25.06-.64-.45-1-.51-.38-.91-.29-1.12-.14.06-.45-.22-.9-.44-1.04-.21.14-.49.56-.44,1-.19-.14-.57-.26-1.08.12-.52.36-.56.78-.47,1.02-.42-.18-.93-.05-1.13.1.06.25.38.64.82.73-.2.15-.43.46-.22,1.08.19.59.57.75.82.75-.3.32-.35.85-.24,1.09.24.02.71-.15.94-.55.07.24.36.55.98.54.65,0,.87-.3.95-.54.21.4.71.6.95.59.08-.24.07-.75-.23-1.07.21,0,.5-.09.71-.47,0,0,.17.12.73.25-.17,0-.8.6-.61,1.39.48-.96,1.28-1.41,3.01-1.21.26.03.54-.06.54-.06l-.61.41c-.22,0-1.16-.18-1.66.69.15-.05.46,0,.46,0-.36.41-1.13.65-1.39.48.12.25.45.98,1.55.31-.1.22-.07.4-.36.55.41.08,1.06,0,1.31-.49.12.06.28.26.37.39.21-.27.34-1.09.19-1.75.16-.16,1.37-1.13,2.58-1.21-.14.15-.12.28-.16.41-.39.1-1.67.91-1.7,1.98.09-.04.23-.24.36-.31-.08.11-.33.68.12,1.6.24-.15.74-.51.92-1.1,0,.11.12.27.07.41.13-.14.58-.48.55-.93.07.16.17.26.17.44.42-.48.71-1.37.06-2,.12-.79.59-1.17.76-1.21-.26-.19-.37-.4-.42-.53-.43-.02-1.44-.47-1.64-1.43h0Zm-9,2.23c-.14.04-.27-.07-.34-.21-.15-.27-.04-.65,0-.83.07-.21.23-.53.45-.65.14-.06.35-.12.48.07-.1-.12-.02-.27.09-.4.21-.22.6-.24.78-.25.23,0,.59.04.76.25.12.1.23.3.1.46.09-.12.25-.11.4-.03.29.13.41.5.49.68.05.21.12.56,0,.79-.08.13-.21.31-.42.23.13.04.17.2.16.37-.04.32-.36.56-.5.68-.18.11-.5.29-.75.25-.15-.03-.36-.1-.36-.32,0,.16-.14.23-.28.26-.32.06-.64-.16-.81-.26-.17-.14-.42-.38-.47-.64,0-.14,0-.38.21-.42h0Zm37.22-2.23c-.19.03-.74.06-.62,0,.26-.09.45-.39.51-.61-.51-.09-.71-.65-.77-.99l-.62.4.31-.7-.6-.34h1.12c.98.72,1.92-.2,1.67-.9l.78-.16-.28.2.89-.05-.65.43.84.62-.92-.2c.33.68-.14,1.37-.33,1.46.22.25.47.23.66.14-.17.45-.76.29-.92.22-.03.29,0,.59.06.7-.19-.05-.45-.38-.51-.56-.17.85-.88,1.83-1.82,2.04-.08.01.33.32.64.2.54-.13,1.32-1,1.53-1.25.55.35.69-.31.71-.57.69-.05.92-1.1.85-1.28.09.07.42.1.88-.22.46-.29.75-.85,1.9-.83-.85.44-1.37,1.09-.69,2.06-.46.04-1.06.53-.67,1.28-.42-.02-1.34.04-1.01,1.1-.31-.25-1.15-.65-1.44.3-.19-.19-.68-.39-1.51-.29.55.3,3.92,1.49,4.03-.75.46.25.22.93.11,1.19.26-.07.62-.12.9-.27-.07-.44.12-.71.3-.83-.45-.1-.78-.49-.85-.74.2-.15.69-.29,1.09-.09-.07-.25-.07-.64.45-1,.52-.38.91-.29,1.1-.14-.05-.45.23-.9.44-1.04.22.14.5.56.45,1,.2-.14.57-.26,1.09.12.52.36.56.78.47,1.02.41-.18.92-.05,1.12.1-.07.25-.38.64-.82.73.21.15.42.46.23,1.08-.2.59-.58.75-.82.75.29.32.35.85.26,1.09-.26.02-.73-.15-.96-.55-.08.24-.36.55-1,.54-.63,0-.85-.3-.93-.54-.22.4-.7.6-.95.59-.11-.24-.08-.75.23-1.07-.22,0-.52-.09-.71-.47,0,0-.19.12-.75.25.18,0,.81.6.62,1.39-.48-.96-1.28-1.41-3.02-1.21-.24.03-.53-.06-.53-.06l.63.41c.2,0,1.13-.18,1.62.69-.12-.05-.45,0-.45,0,.35.41,1.12.65,1.4.48-.12.25-.47.98-1.56.31.09.22.07.4.36.55-.4.08-1.08,0-1.31-.49-.12.06-.28.26-.37.39-.21-.27-.33-1.09-.19-1.75-.17-.16-1.37-1.13-2.58-1.21.12.15.12.28.17.41.37.1,1.67.91,1.69,1.98-.09-.04-.24-.24-.36-.31.09.11.34.68-.12,1.6-.23-.15-.73-.51-.9-1.1-.02.11-.14.27-.09.41-.12-.14-.57-.48-.55-.93-.06.16-.17.26-.17.44-.4-.48-.69-1.37-.05-2-.11-.79-.58-1.17-.76-1.21.25-.19.37-.4.41-.53.45-.02,1.46-.47,1.66-1.43h0Zm6.14,2.24c-.14.07-.27-.06-.35-.2-.16-.28-.05-.65,0-.83.08-.21.23-.54.47-.66.13-.05.35-.11.46.07-.08-.12-.01-.26.09-.4.22-.22.61-.22.79-.24.24.02.58.05.77.24.1.11.22.29.07.44.11-.12.26-.09.41-.02.28.14.43.5.49.68.07.21.12.57.01.8-.07.11-.21.3-.41.22.13.05.16.21.14.36-.04.32-.34.56-.48.68-.2.13-.5.3-.75.26-.15-.03-.35-.11-.35-.32,0,.15-.15.22-.31.27-.3.06-.62-.16-.78-.27-.16-.14-.43-.38-.47-.64-.02-.15,0-.37.2-.45h0Zm2.12-.17s.04-.08.08-.09c.04-.01.08,0,.11.02.17.11.81.17.55-.61-.26-.77-.74-.37-.81-.18-.02.04-.04.07-.08.09-.04.02-.08,0-.12-.03-.03-.02-.05-.07-.05-.11,0-.04.02-.08.04-.1.16-.13.4-.71-.42-.71-.82.02-.56.59-.41.71.04.04.06.06.06.1,0,.05-.04.09-.07.11-.03.03-.08.04-.11.02-.03,0-.07-.04-.08-.08-.09-.19-.55-.6-.8.19-.23.79.38.72.55.61.04-.02.08-.03.13-.02.03.02.06.05.07.09.02.04,0,.09,0,.12-.03.04-.06.05-.1.05-.21.02-.75.34-.09.81.67.48.81-.12.76-.33,0-.03,0-.08.02-.12.02-.03.06-.03.1-.03.04,0,.1,0,.12.04.02.04.02.08,0,.11-.03.21.1.82.76.33.67-.47.12-.8-.07-.81-.05,0-.09-.02-.11-.05-.03-.04-.03-.08,0-.12h0Zm-.27.07c.06-.1.1-.2.1-.3v-.03l.35-.25h-.44c-.06-.1-.14-.16-.25-.2l-.14-.4-.12.4c-.13.03-.23.11-.3.2h-.39l.32.23s-.01.04-.01.04c.01.13.05.24.13.33l-.11.37.31-.24s.1.04.16.04c.08,0,.16-.02.21-.04l.33.22-.13-.38h0Zm-3.7-43.16c.25-.05.5-.02.75-.02-.17-.2-.33-.82-.26-1.15.37.24,1.42,1.24,1.5,1.56.77-.54,1.57-.12,1.82.04.03-.28.4-1.02.74-1.45-.28-.08-1.24-.41-1.57-.69.41-.17,1.15.08,1.77.2.15-.54.87-1.12,1.2-1.44-.38,0-1.29-.63-1.53-.84-.34.29-1.08.55-1.34.55.12-.25.63-.75.88-.84-.05-.2-.1-.78.07-1.11-.21.24-1.4.33-1.81.21-.09.32-.57.99-.96,1.19,0,0,.12-.33.26-.7-2.35.34-3.5-1.32-3.71-1.77-.41,1.07-1.82,1.04-2.25.94.3.59-.03,1.61-.24,2.08.18.15.34.27.45.33.19-.31.69-1.31.5-1.87.2.02,1.2-.11,1.43-.55.1.21.62.68.89.79-.11.29-.65,1.22-.87,1.46.45,0,1.03-.41,1.54-1.26.18.13,1.06.5,1.61.4-.17.23-.67,1.2-.46,1.53-.81-.24-1.42-.26-2.3.49.53.18,1.35.43,1.9.29-.12.58-.16.99-.02,1.16-.16-.02-.29,0-.38.03.09.06.34.28.4.44h0Zm2.62-3.86c-.4.68-1.49,1.43-1.79,1.6-.31.16-.08.13.06.19.12.05,1.45.66,1.96,1.4.1.17.36.14.22-.08-.13-.22-1.02-1.14-1.16-1.29.35-.03,2.31-.44,2.56-.55.24-.11.24-.2-.02-.14-.29.07-2.23.26-2.46.26.15-.22.79-1.08.86-1.28.05-.19-.16-.21-.23-.11h0Zm-37.98,36.74c0-.36-.17-.7-.23-.86.3-.28.55-.53.85-.86,3.87-4.09,7.23-3.14,7.26-1.65.02.99.38,2.2.74,3.12.39.94-.12,2-1.51,1.92-1.39-.09-2.21.95-1.96,1.81.05-.25.29-1.11.93-1.26-.06.3-.17.65-.35.75h2.3c-.23-.13-.41-.72-.41-.94,1.35-.03,1.97-1.35,1.61-2.3-.07-.2-.16-.38-.23-.58.55.38,1.8,1.1,2.26,1.26.49.17.6.52.68.8.21.73-.86,1.91-1.67,2.47-1.14.76-1.17,1.76-.5,2.39-.08-.32-.62-1.02.83-1.97.45-.3.85-.65,1.17-1,0,0,0,0,0,0,.17.38.66,1.4.66,1.4.16.38.77.43,1.13.16.27-.22.38-.58.29-.9,0,0-.53-1.26-.6-1.43-.13-.26.11-.34.11-.34l.08-.03-.1-.22-.69.32.1.2s.03-.02.11-.05c.13-.05.22.17.22.17l.61,1.41c.06.19.01.4-.15.54-.2.14-.56.13-.67-.09-.17-.34-.58-1.19-.76-1.56.41-.62.63-1.23.27-1.84.75.24,1.2.36,1.97.47.01,0,.02,0,.04,0-.36.1-.63.44-.36,1.04.18.37.93.54.93.54.69.19.76.77.24.89-.44.1-.75-.45-.75-.45l-.19.07.34.79.19-.07-.07-.18c.12.08,1.12.33,1.2-.52.09-.86-.71-1.07-.8-1.1-.08-.02-.74-.16-.79-.35-.11-.36.41-.5.7-.32.04.07.17.32.17.32l.21-.1-.22-.47c.36.03.68.06.99.08-.07.21-.12.43-.12.68,0,.78.42,1.42.95,1.49.17,0,.36.32.55.5.17.18.91.86,1.52-.25.03,0,.08,0,.12,0,.34,0,.65-.22.76-.55,0,0,.34-1.32.39-1.5.04-.19.23-.16.23-.16l.08.02.05-.16-.64-.21-.06.19s.03.02.12.04c.09.04.05.22.05.22l-.38,1.49c-.05.19-.23.33-.44.33-.24,0-.52-.23-.47-.45.09-.48.29-1.48.31-1.55.04-.1.05-.28.33-.23l.02-.1c.65-.11,1.2-.23,1.91-.46-.2.33-.19.6-.15.93,0,0,0,0,0,.02l-.44-.16-.04.12s-.06-.01.13.05c.21.07.2.2.18.24-.02.05-.61,1.7-.67,1.82-.05.11-.19.1-.22.09,0-.01-.06-.03-.06-.03,0,0-.06.14-.08.18.23.05,1.58.53,1.72.59l.48-.68s-.08-.06-.11-.07c-.49.64-1.21.22-1.31.17,0,0,.29-.73.31-.83,0,0,0-.03.08,0,.39.12.25.46.22.51l.14.04.29-.83c.34.4.79.78,1.32,1.12,1.43.95.89,1.66.84,1.97.66-.63.56-1.55-.58-2.3-1.36-.9-2.31-2.6-.93-3.34.61-.28,1.76-.89,2.23-1.23-.07.18-.14.37-.22.58-.37.94.28,2.23,1.64,2.26,0,.22-.16.81-.41.94h2.3c-.17-.11-.28-.45-.35-.75.63.15.89,1.01.93,1.26.26-.86-.58-1.9-1.96-1.81-1.39.08-1.91-.98-1.52-1.92.38-.93.74-2.14.75-3.12.02-1.42,2.77-2.15,5.96.44,0-1.48,1.34-3,2.48-4.58-.47.03-.84-.18-1.59,1.04-.63,1.01-1.2.85-1.2.85.1-.03.35-.38.36-.49.04-.1.06-.28.12-.34-.15.05-.62.17-.78.45-.15.28-.44.6-.99.6.09-.06.2-.18.22-.27.02-.1.02-.44.25-.54-.42.12-.92.12-1.27.44.28-.52.77-1.56.93-2,.77-.19,2.25-.53,2.72-.6-.27-.08-.98-.45-1.06-.58-.18.04-.62.04-1.17-.41.35-.94.57-3.18.39-4.95.26-.07.56-.02.93.07.48.13,1.39-.43,1.57-.7,0,0,.5.25.67.52-.17,0-.85.05-1.28.56.12.05,1.68.72,2.09,1.32.29.39-.47.9-.47.9,0,0-2.41,1.32-.52,2.36.56.3.79.51.87.65.16-.26.32-.46.39-.59,0,0-.68-.86-.15-2.03.51-1.14,1.44-3.55,1.08-3.95.07.22-.8,2.16-.94,2.38-.28-.44-1.47-1.07-1.67-1.11.56-.21.98-.13,1.31-.06-.38-.76-.98-1.27-1.39-1.3-.41-.03-1.36-.28-1.79-.62-.05.24-.49.62-.58.68-.03-.29-.29-1.21-.34-1.43.75-.12,1.24-.5,1.33-.6.46.14.96,0,1.4-.08,1.15.35,1.39.06,1.61-.06.24-.12.2-.34-.12-.19-.34.17-.8.08-.93-.02.18-.11.37-.39.37-.39,0,0,.03-.24-.13-.12-.84.72-1.49.48-1.85.46.3-.24.29-.77.29-.77,0,0-.17-.37-.19-.05-.11,1.65-3.99,1.5-4.89,1.53-.89.04-.6,1.3-.44,1.62.28.66.27,1.36.12,1.59-.1-.25-.26-.5-.4-.64-.17-.15-.31-.33-.36-.49,0,0-.35-.04.27.99.62,1.02,0,1.72-.4,1.3-.17,1.17-1.22,1.17-1.57,1.13.24-.06.52-.61.61-1.01,0,0-.36-.39.18-1.25.52-.85.33-2.64.21-3.23-.12-.59-.02-.93.33-1.04.35-.12,1.17-.58,1.75-.99.59-.42,1.9-1.1,2.89-1.47-.29-.06-1.26,0-1.26,0l-.13-.28.36-.14.12-.89c.07-.3-.35-.34-.4-.04-.14-.07-.21-.2-.21-.37,0-.25.2-.45.44-.46.18,0,.32.08.4.21l1.31.19-.13.7-1.07-.15-.06.37c2.44.41,4.2,1.1,6.18,2.79l.24-.28-.81-.7.44-.55.83.7.7-.82c.13.11.33.11.47-.02.12-.14.1-.35-.02-.46l.38-.47-.61-.46-.12.66-.29-.48-.68.76.52.14c-.73.33-.98.03-1.17-.35-.07-.13,0-.4.04-.43.27-.35.52.03.37.17.87.16.71-.95-.02-.7.43-.33.48-.84.43-1.07-.23.04-.69.31-.77.86-.09-.77-1.2-.37-.67.33-.03-.31.53-.17.37.2,0,.04-.22.21-.37.21-.33-.04-1.24-.19-.77-1.17l.36.45.48-.96-.61.12.58-.53-1.39-.62v.79s-.31-.53-.31-.53l-.41,1,.57-.04c-.46.83-1.43.49-1.53.16,0-.08,0-.24.04-.28.31-.36.58.03.41.1.87-.06.43-1.09-.22-.67.36-.43.26-.92.16-1.15-.2.11-.58.48-.53,1.03-.29-.71-1.26-.06-.57.5-.11-.3.46-.31.4.09,0,.14-.12.29-.22.3-.33.07-.85.08-1.09-.71l.45.32.12-1.01-.55.1.41-.53-.75-.17-.09.6c-.18,0-.34.12-.36.29-.02.18.12.34.3.36l-.11.72c-.16-.17-.4-.29-.65-.29-.46.02-.84.41-.83.87.02.32.2.6.53.73l-.06.31-.4.14s-.07.12-.04.19l-.17.07c-.45-.82-1.93-2.39-1.95-2.39v-4.38c.04-.19.27-.61.4-.79v3.11c.14-.03.26-.06.33-.08.52-.15.73-.09.76-.04.03.03.31.3.44.32.14.04.3-.06.37.35.08.43.39,1.18.39,1.18h.34c-.05-.11-.07-.2-.07-.32-.02-.3.1-.65.4-.71l.1-.68.66.14c-.16-.25-.21-.49-.21-.56.82.75,1.52.42,1.71.3.46-.29.28-.7-.22-.38-.63.39-1.13.01-1.1-.2-1.31.48-1.41-.04-1.57-.27,0,0,.43.36,1.14-.07.71-.43.96-.45,1.42-.5.68-.07.2-.76-.98-.09-.77.45-.49-.37-.49-.37,0,0,.21-.2.16-.37-.18-.59.19-.55.19-.55,0,0,.18,0,.23-.12.24-.49.74-.69,1.08-.64-.28-.89.24-1.16.56-1.37-.06.86.74.81.92.7,0,0,.46-.33.2-.47-.88-.47-.74-1.15-.71-1.37-.73-.28-.66-1.12-.62-1.28-.8-.28-.78-.91-.7-1.28.02-.11.02-.29.05-.47,0-.35,0-.7-.12-.83.21.02.45-.12.76,0,.43.07.79.35.77,1.1.2.03.64.18.74.9.06.01.12.06.17.08.17.08.31.33.34.37.1.18.21.41.21.71.14,0,.66.15.75.62.11.56.19,1.09.75,1.54-.24.18-.34,2.04,1.07,1.53.25.38,1.2,2.21.14,4.94-.18.45.15.26.23.09.1-.17,1.51-2.55-.07-5.28.1-.21.17-.55.06-.7.12-.18.05-.75-.35-1.23-.2-.23-.3-.41-.3-.41.32-.3.97-.53,1.87-.25-.51.09-.63.75-.61,1.07.2,0,2.01-.23,2.11,1.68-.32-.34-1.24-.35-1.35.23.2.05,1.87,1.02,1.27,2.84-.15-.49-.5-.81-1.15-.65.41.42,1.14,2.15.41,3.15,0-.25-.35-.51-.78-.72.21.53.57,2.41-.18,3.15,0,.39-.3.72-.68.73-.17.19-.86,1.02-.86,1.02l1.65.38c.02-.76,1.13-4.65,4.71-2.57.98.58,1.64.11,1.61-.18.3.29.7,1.74-.7,1.66.13.23.23,1.64-.02,2.38-.25.71.38,1.13.62,1.07-.57.29-2.59.67-2.42-2.4-.46.26-1.43.61-1.79-.6,2.65.73.61-3.45-.88-.16-.54,1.21.57,2.83.57,2.83-.02-.37.23-.78.23-.78,0,0,.17-.41.08-.54.38.33.6.83.6,1.52.03,1.01.49,1.58.49,1.47,0-.12.2-.65.28-.8.05-.07.08-.38.06-.51.2.27.59.93.39,1.59-.21.68-.04,1.45.15,1.72.89,1.04-.48,5.08-3.46,1.64-.04.47-.64,2.63.9,3.11.38.12.28.33.28.33,0,0-.16.33-.02.58.17.24-.12.47-.12.47,0,0-.66.66-.15,1.86.19.44-.09,1.32-.09,1.32,0-.31-.18-.63-.31-.74-.13-.12-.4-.43-.37-.56-.03.38-.13.67.29,1.18.41.52.1,1.29-.05,1.48,0-.23-.08-.35-.21-.48-.12-.11-.38-.39-.38-.58-.04.29-.45.62-.61.7-.14.09-.28.33-.28.83.02.5-.57.79-.59.14-.03.18-.2.88.26,1.24-.17.05-.85-.32-.93-.61-.35.65-1.43.68-1.59.13.25.02.83-.2.87-.58.08-.41.37-.84.56-.99-.1.03-.33.07-.48-.1-.09.11-1.16,1.05-1.55.64.01.11-.61.56-1.03.64.45.43.92.78,1.36,1.1l-.92,1.37c.1,0,.39-.04.67-.11,0,0,.01,0,.02,0l-1.54,1.2c-.22.14-.39.02-.45-.07l-.12.13c.14.11.6.46.7.53l.11-.13c-.13-.08-.25-.17-.11-.29l.36-.29.57.37-.15.44c-.04.18-.22.06-.29,0,0,0-.08.12-.1.15.15.1.94.53.94.53,0,0,.05-.11.08-.16-.16-.1-.24-.13-.21-.21l.67-2.28-.02-.02s.02,0,.02,0c.13-.05.26-.09.28-.11-.02.11-.08.49-.08.49.04.01.2.04.37.04l-.03.08c.05.02.3.13.16.47-.13.35-.63,1.5-.63,1.5,0,0-.05.25-.33.13l-.07.14,1.1.47.07-.17c-.12-.05-.12-.05-.18-.1-.07-.04-.12-.1-.04-.3.08-.21.21-.51.21-.51.12.06.23,0,.26.81.01.83.59,1.42,1.14,1.4.61-.05.95-.54,1.12-.89.6-.06,1.11-.2,1.11-.2v-.78s-.19.04-.19.04c0,.32-.2.62-.32.67-.09.03-.46.1-.63.09v-.85s.09,0,.26,0,.15.16.15.16v.23h.19v-1.14s-.21.01-.21.01c0,0,0,.18,0,.28,0,.08-.12.14-.12.14h-.26v-.8s.28-.02.54-.02c.21,0,.32.37.35.52h.16s0-.57,0-.85c-.41.19-1.59.1-1.83.07v.16c.33.09.33.41.31.44,0,.03.02.93,0,1.31-.02.4-.17.38-.26.38h-.06v.18c.23.02.47.02.72,0-.89,1.25-1.6.21-1.6-.15-.02-.98-.23-1.06-.31-1.16,0,0,0-.04.07-.03,1.31.1.9-1.23.51-1.27-.26-.04-.85-.3-1.16-.46.31-.04.77-.13,1.3-.4,2.32.77,3.97-.19,4.03-2.03.03-.73-.61-1.31-1.22-1.42.11-.23.1-.46.09-.6.8.11,1.58.75,1.62,2.09.03.7-.25,1.33-.39,1.52-.12.21-.83,1.84-.6,3.23.23,1.4-4.35,4.03-10.79-2.26-3.28-3.22-4.59-1.76-4.59-1.76.52-.03,1.88-.33,3.72,1.59-.27.42-.38,1.42-.38,1.62s-.21.81-.6,1.06h.31c.16,0,.21.27-.02.42-.23.14-1.01.83-.99,2.68-.26.03-.45.19-.57.32,0-2.05.37-2.32.67-2.85h-2.11c.31.53.69.7.67,2.77-.25-.12-.48.04-.62.12.1-2.15-.6-2.75-.87-2.99.22,1.09-1.16,2.24-2.04,1.75-1.88-1.05-3.95-2.12-6.11-2.07-2.17-.05-4.21,1.02-6.09,2.07-.88.49-2.26-.67-2.06-1.75-.27.24-.97.85-.85,3-.18-.16-.44-.18-.63-.03,0-2.06.36-2.34.66-2.87h-2.11c.3.53.66.73.67,2.78-.04-.04-.27-.2-.55-.23.02-1.86-.75-2.55-.99-2.69-.22-.15-.17-.42-.02-.42h.32c-.39-.25-.61-.85-.61-1.06s-.1-1.2-.38-1.62c1.85-1.91,3.21-1.62,3.72-1.59,0,0-1.31-1.45-4.59,1.76-6.43,6.29-11.02,3.66-10.78,2.26.23-1.39-.48-3.02-.6-3.23-.13-.2-.42-.83-.4-1.52.04-.92.41-1.5.9-1.83-.02.33.04.52.15.63-.32.26-.58.66-.56,1.12.06,1.53,1.22,2.44,2.94,2.3.35.5,1.49.99,1.43.93-.04-.07,0-.12,0-.18.16.11.46.49.48.54.13-.1.23-.2.3-.31,0,0,0,0,0,0l.91,1.54s.04.13-.04.18c-.07.04-.23.12-.23.12l.1.17.87-.46-.08-.16s-.17.07-.19.09c-.01,0-.15.06-.21-.04l-.79-1.38c.08.09,1.7,1.23,1.7,1.23l.08-.06-.44-2.08.96,1.37c.05.07.05.11-.04.17-.09.06-.14.1-.14.1l.1.14s.84-.62.89-.69c-.04-.03-.12-.15-.12-.15-.05.07-.09.09-.14.13-.05.04-.15.09-.26-.04l-.92-1.31c-.16-.25-.07-.42,0-.51.38-.15.58-.41.67-.65h0l.92,1.85c.1.23-.04.29-.12.36l.1.14c.13-.12.55-.46.64-.55l-.1-.12c-.11.09-.25.24-.34.09l-.24-.51.5-.37.4.2c.18.17.01.31-.05.37,0,0,.09.1.11.11.13-.11.81-.71.81-.71,0,0-.06-.08-.1-.1-.13.13-.31.09-.43.03l-2.05-1.1h0Zm34.87-28.16c-.23.29-.24.62-.22.68.02.15.14.08.2-.03.42-.85,1.12-.8,1.12-.8.22,0,.18-.24.06-.26-.12,0-.21-.02-.32,0,.12-.19.16-.41.06-.5.16,0,.41.1.48.13.06.05.11-.07.05-.1-1.15-.73-1.73.16-1.79.39-.15.06-1.46.52-1.72.63-.2.09-.03.28.08.24,0,0,1.47-.5,1.6-.55.13.08.26.16.4.17h0Zm-2.67.32c.15-.06.25-.18.2-.28-.04-.09-.2-.12-.33-.06-.15.06-.22.18-.19.28.04.09.19.13.32.07h0Zm2.85-3.85c.47.38.22.98.18,1.18-.05.2-.25.66-.1.99-.33-.12-.48-.44-.27-1.11.23-.67.28-.9.2-1.06h0Zm-.67-.9c.49.38.24,1,.19,1.19-.04.21-.24.66-.1.98-.34-.12-.48-.45-.27-1.11.22-.67.28-.89.18-1.06h0Zm-.69-1.09c.47.35.27.9.23,1.08-.03.18-.22.61-.06.89-.33-.12-.49-.39-.31-1,.19-.61.23-.81.14-.97h0Zm-.88-1.09c.53.24.4.76.39.93,0,.16-.12.57.08.79-.35-.05-.54-.28-.45-.84.08-.56.1-.76-.01-.88h0Zm-38.46,39.28c-.1.22-.22.18-.34.15l-.02.14c.12.03.67.16.83.16l.02-.14c-.13-.03-.36-.03-.31-.25l.19-.51.71.07.16.42c.02.25-.2.28-.29.28,0,0,0,.12,0,.14.18.02,1.11-.09,1.11-.09,0,0,0-.13,0-.15-.18.03-.32-.05-.38-.18l-.73-2.08-.2-.02-.75,2.04h0Zm3.18-2.43c.06-.18.06-.33.06-.4.06.05.11.11.33.15.22.05.52.24.54.28.08-.08.14-.17.2-.24,0-.01,0-.02.02-.03l.27,1.25s-.96-.68-1.41-1.01h0Zm1.35-1.11s0,0,0,0c-.03-.26-.11-.47-.13-.52.13.05.29.2.4.31t0,0l-.27.2h0Zm4.53-4.01l1-.57.11.18c-.07.03-.13.07-.13.07,0,0-.12.08-.04.22.07.17,1.03,1.65,1.07,1.69.04.05.13.04.22-.02.06-.04.13-.08.13-.08l.11.19-.1.05c.19,1.64-1.03,1.43-1.72,1.03-.68-.4-1.2-.21-1.3-.17-.08.05-.02.1-.02.1,0,0,.32.27.47.44.12.12.23-.03.23-.03l.17-.16.14.14-.91.84-.15-.13s.03-.02.15-.14c.12-.13,0-.22,0-.22,0,0-1.3-1.24-1.4-1.35-.09-.11-.16-.05-.18-.02,0,0-.17.16-.17.16l-.17-.18c.38-.36,1.34-1.32,1.91-.84.5.43.12,1,.12,1-.02.05.04.14.13.07.11-.05.64-.22,1.28.12.51.24.65.29.65.29,0,0,.77.25.63-.89l-.8.48-.11-.16.14-.09s.12-.05,0-.26c-.1-.17-.98-1.51-1.01-1.56-.04-.07-.18-.13-.24-.1-.06.03-.13.06-.13.06l-.1-.18h0Zm30.12-21.83c.25-.29.3-.63.95-.5.64.14,2.43.11,2.7-1.04.21-.85-.24-1.48-.24-1.48.25.24.69.68.61,1.54-.07.87-1.17,1.53-2.6,1.31-.96-.15-1.2.52-1.2.52-.01-.13.03-.1-.23-.36h0Zm-6.16,29.23h-.73v-.87c0-.37.71-.44.73.42v.46h0Zm-1.28,0h-.61s-.21-.25-1.04-1.62c-1.28-2.07-1.89-1.29-2.07-1.19.22-.43,1.13-1.23,2.44,1.05.82,1.43,1.27,1.76,1.27,1.76h0Zm-4.53-2.01c.06.14.17.3.28.43l.02.04c-.12.35-.44.28-.5.25-.07-.03-.04-.08-.04-.08l.24-.64h0Zm-4.97-.84c.35.01.69.02,1.02,0,.05.19.08.41.08.64,0,.54-.15,1-.36,1.19-.26-.19-.46-.18-.58-.17-.15-.24-.24-.61-.24-1.02,0-.24.03-.46.08-.65h0Zm1.42,0c.24-.02.48-.04.73-.08,0,.04,0,.08-.02.12-.08.38-.33,1.54-.33,1.54-.07.34.2.64.53.76-.18.26-.59.85-1.15.01-.09-.13-.17-.25-.25-.33.35-.24.6-.76.6-1.37,0-.23-.04-.46-.11-.66h0Zm-10.25,2.86h.61s.23-.25,1.07-1.62c1.26-2.07,1.87-1.29,2.06-1.19-.23-.43-1.14-1.23-2.46,1.05-.81,1.43-1.27,1.76-1.27,1.76h0Zm-1.27,0h.71v-.87c0-.37-.71-.44-.71.42v.46h0Zm26.01-4.84c-.06.17-.76,2.07-.76,2.07l.07.05,2.01-1.09-1.2,1.39c-.11.06-.15.08-.23,0-.08-.07-.12-.11-.12-.11l-.12.13s.8.67.88.69c.03-.04.12-.15.12-.15q-.07-.05-.12-.08c-.05-.04-.13-.12-.03-.26l1.08-1.24c.29-.32.5-.11.54-.1l.13-.16c-.06-.04-.58-.47-.67-.57l-1.66.9s.58-1.64.64-1.77c-.06-.02-.42-.36-.5-.46-.05.06-.13.13-.13.13.07.1.12.29-.01.45l-1.19,1.39s-.11.07-.16,0c-.09-.04-.15-.1-.15-.1l-.12.15.62.55.12-.13-.09-.09s-.11-.13-.07-.27l1.13-1.35h0Zm-3.82-.21c.19.09.7.42.87.58.16.15.97.24,1.52-.55.52-.78.16-1.5-.14-1.72-.32-.23-.79-.5-1.08-.63l-.11.18.09.06s.2.1.09.32c-.12.22-.82,1.56-.82,1.56,0,0-.09.2-.31.06l-.1.15h0Zm-1.94-1.14c-.16.25-.23.25-.36.21l-.03.19c.19.04.6.09.73.11l.02-.16c-.19-.03-.29-.08-.19-.24l.26-.39.65.19v.49c0,.17-.13.12-.21.08,0,0-.05.12-.07.15.29.1.96.42.96.42,0,0,.04-.12.06-.15-.17-.08-.25-.11-.23-.19l-.16-2.57-.2-.05-1.22,1.94h0Zm10.52-6.08c.64.24,1.47.65,1.71.79.25.15.37.42.3.83-.06.43-.72,2.15-1.41,3.17,0-.16-.98-1.22-1.49-1.76-.51-.52-1.18.09-1.32.48-.15.4-.53.61-.53.61,0,0-.3.04-.1-.16.24-.25,2.56-3.5,2.84-3.96h0Zm2.72-7.61c-.06.55-.56,2.95,1.17,4.32,1.04.84,1.62-.5.77-1.43-.75-.81-1.95-2.89-1.95-2.89h0Zm-.84-.99h-.31s0-.2,0-.2t0-.04l.19-.79c.02-.08-.03-.15-.11-.19l-.55-.12-.56-.12c-.07-.01-.17.03-.19.1l-.02.14-.46-.11.03-.13c.03-.08-.03-.16-.1-.17l-.47-.12c.06.16.26.69.24.88l.64.15-.04.16c-.02.08.04.15.11.17l.57.14.19.03v.24c-.07.01-.12.07-.12.15v.57s.03.56.03.56c0,.08.07.15.16.15h.15l-.08.48h-.13c-.1-.03-.16.03-.18.1l-.1.56-.07.56c-.03.08.03.15.12.17l.11.03-.13.52-.16-.04c-.07-.03-.15,0-.17.09l-.19.53-.17.54c-.03.07.02.17.09.19l.08.03-.19.54-.14-.07c-.07-.04-.14-.01-.2.06l-.25.51-.28.5c-.03.07,0,.18.08.2l.12.08-.22.42-.12-.09c-.06-.05-.14-.02-.2.04l-.31.47-.34.48c-.05.06-.03.15.04.2l.08.05-.31.46-.1-.07c-.08-.05-.16-.02-.21.03l-.33.46-.32.48c-.04.07-.03.16.03.21l.12.07-.37.48-.15-.09c-.06-.05-.16-.04-.21.03l-.31.45-.32.47c-.06.08-.03.16.03.21l.08.04-.25.48-.15-.03c-.09,0-.17.05-.18.14l-.07.54-.08.57c0,.08.04.17.12.17l.48.07.03.14-.07.02c-.08.01-.14.08-.12.17l.12.79c.02.09.09.15.18.13l.56-.1.55-.09c.09-.01.13-.09.13-.18l-.02-.15.51-.33c.25.19.56.24.74.07.15-.11.54-.39.79-.62.48.56.85-.14.6-.39-.05-.04-.74-.91-.93-1.1-.35-.43-.9.19-.74.46l-.58.43c-.29.25-.32.52-.22.76l-.27.16v-.08c-.02-.07-.1-.13-.18-.12l-.56.09-.03-.16.08-.55.07-.55c0-.09-.05-.16-.13-.17l-.11-.03.13-.26.18.12c.07.05.15.04.21-.04l.32-.48.31-.45c.05-.07.03-.17-.03-.22l-.1-.06.37-.48.14.1c.07.04.16.02.2-.05l.33-.47.32-.47c.04-.06.03-.16-.04-.2l-.14-.1.32-.46.16.11c.06.05.17.04.2-.03l.34-.47.33-.47c.04-.06.02-.16-.05-.2l-.13-.09.25-.48.12.06c.08.04.17.02.21-.05l.26-.52.27-.48c.03-.09,0-.17-.07-.21l-.12-.07.21-.6.2.06c.08.03.16,0,.19-.09l.18-.53.19-.54c.03-.08-.02-.16-.11-.19l-.12-.04.13-.61.19.04c.08.02.15-.04.17-.12l.09-.57.1-.56c0-.09-.04-.16-.12-.16l-.16-.03.07-.59.16-.02c.06,0,.13-.07.13-.15l-.02-.57v-.56c0-.08-.07-.14-.16-.14h0Zm-25.76.23c-1.15.76-1.71.55-1.87.52l.04-.36-.71-.44-.64.28c-.02.91.15,3.33,2.39,3.91l-.17.28,1.58.02c.38-.44.7-.41.96-.4,0,0-.41-1.47.03-2.23,1.18-2.11-.45-2.3-1.61-1.57h0Zm-1.93,1.64l1.56,1.5-.18.34c-1.15-.37-1.34-1.24-1.38-1.83h0Zm.02-.53s.2.02.37.03l1.48,1.45c-.02.07-.07.14-.1.21l-1.75-1.69h0Zm2.11,1.16l-1.26-1.22c.07.01.19-.01.27-.01l1.09,1.04c-.03.05-.09.13-.1.2h0Zm.48-.73l-.8-.77c-.1.05-.19.1-.25.1l.92.88c.03-.05.09-.13.14-.21h0Zm-.43-.97l.68.66c.07-.14.15-.28.22-.41.37-.68-.24-.68-.45-.53-.19.14-.34.22-.45.28h0Zm-2.96,9.61c-1.1-1-1.95-2.25-2.44-3.67-.2.25-.46.3-.7.28,0,0-.14,0-.24-.04-.12-.04-.21-.09-.28-.13.27.74.34.9.34.9l-.12.04c-.02-.09-.1-.29-.2-.25l-1.77.63s-.08.07-.06.14c.03.09.08.22.08.22l-.12.05c-.04-.16-.69-1.26-.22-1.88.04-.04.07-.09.12-.13-.18-.16-.36-.41-.45-.64-.02.01-.05.06-.04.12.03.14.02.18.02.18h-.13s-.23-1.43-.21-1.81c.02,0,.04-.02.06-.02-.14-.05-.32-.12-.38-.17-.3,0-.63-.56-.86-.76.07,3.26.89,5.66,2.33,7.8.15,0,.49-.05.86-.03.27.01.73.1.88.16.29.12.58.21.89.55l.77-.66.15.12-.2.15s-.08.11-.02.19c.05.08.14.16.14.16,0,0,.08.02.12-.03.05-.05.48-.49.48-.49,0,0,.07-.07.02-.12-.05-.05-.39-.4-.39-.4,0,0-.15-.13-.34.01-.18.14-.3.23-.3.23l-.1-.12.63-.5c.07.08,1.01,1.1,1.15,1.19-.03.03-.11.12-.11.12l-.07-.1s-.12-.06-.22,0c-.1.08-1.2,1.27-1.2,1.27,0,0,0,0-.01.02,0,.06,0,.13.01.22.11.1.11.11.11.11l-.09.08c.03.37.08.86.21,1.44,2.33,1.74,5.05,2.62,8.17,2.62s5.87-.98,8.17-2.65c.09-.35.2-1.02.25-1.55,0,0,0-.02,0-.05-.02.02-.04.03-.04.03l-1.47-.69.45,1.59s-.64.45-.71.51l-.1-.12s.07-.05.14-.11c.07-.06,0-.16,0-.16,0,0-.92-1.34-.99-1.48-.1-.13-.15-.04-.15-.04l-.09.04-.08-.13c.17-.1.7-.51.7-.51l.11.15s-.04.02-.1.07c-.08.06,0,.17,0,.17l.94,1.33-.6-2,.06-.07,1.76.87-1.08-1.1s-.12-.03-.16.01c-.01.06-.07.09-.07.09l-.12-.1.44-.45.12.12s0,0-.06.05c-.08.06-.07.15-.04.18,0,0,1.02,1.02,1.19,1.2h0c.04-.13.06-.24.11-.37.14-.3.51-.67,1.17-.88h0s-1.75-.49-1.75-.49c0,0-.25-.09-.28-.04-.03.02-.1.1-.1.1l-.12-.09c.06-.08.42-.49.59-.7l.11.05-.06.09s-.12.2,0,.22l.47.15.43-.65c-.1-.15-.26-.36-.28-.38-.07-.07-.1-.03-.12,0-.02.02-.07.08-.07.08l-.09-.08s.14-.2.14-.2c-1.04-1.46.81-1.76,1.07-1.81.27-.06.74-.14,1-.29.26-.16.06-.26.06-.26,0,0-.59-.14-.65-.15-.07-.03-.09,0-.1.05,0,.06-.04.17-.04.17l-.17-.04.17-.6c-.26.24-.52.32-.75.3l-.02-.19c-.17.04-.28.04-.42-.03-.46,1.38-1.26,2.61-2.29,3.61,2.37-4.11,2.22-7.82,2.22-7.82v-3.37c-.04-.41.12-.55.42-.76h0l-.39.04-.03-.08,1.19-1.66-1.24.84v-.17c.45-.31,1.23-.84,1.32-.9.12-.09.05-.26.05-.26l-.06-.08s.11-.11.15-.13c.08.08.45.74.45.74l-1.25,1.56c.14-.08.29-.17.29-.17.37-.18.76-.4,1.07-.67.48-.43,1.05-.74,1.31-.87-1.65-2.78-4.26-4.93-7.39-6,0,0-.26.62-.35.87h0s.54.2.54.2l-.05.16s.02,0-.12-.05c-.15-.04-.23.08-.23.08l-.63,1.65-.45-.03s.47-1.41.56-1.68c.06-.18.01-.25-.02-.27h0s-.01,0-.02-.01h0l-.13-.04h0s0,0,0,0c-.63-.11-1.21-.05-1.64.05h0c-.1.53-.27,1.53-.27,1.53-.02.05.09.12.35.15.23.03.35.03.56-.52l.21.06-.23.76-1.63-.31.02-.14.15.02s.08.04.11-.13l.17-1.2c-.31.14-.54.28-.67.38-.23.17-.47.13-.63.05h0v.31s-.19.02-.19.02v-.24s0-.09-.06-.13c-.09.08-.21.09-.32.08,0,0,0,.01,0,.03.02.08.04.69.04.69,0,0,0,.08.09.09.07,0,.55-.02.55-.02,0,0,.2-.03.22-.25.02-.24.04-.37.04-.37h.15l-.05.8c-.12.02-1.51.02-1.66.05,0-.03-.02-.15-.02-.15l.13.02s.14-.04.13-.16c0-.07-.04-.48-.07-.89-.03-.01-.06-.05-.09-.08-.29-.19-.61-.31-.93-.4h-.01c.07.47.2,1.31.21,1.42.02.14.11.11.11.11h.11v.13c-.19.03-.85.17-.85.17l-.03-.2s.03,0,.12-.02c.09-.03.06-.16.06-.16l-.25-1.45-.29,1.91-.16.02-1.2-1.5.49,1.5-.17-.02s-.49-1.46-.53-1.6c-.06-.16-.25-.12-.25-.12l-.09.04s-.05-.12-.05-.15c.09-.06.55-.18.69-.22-.1,0-.18,0-.26,0,0,0-.12-.44-.25-.85-3.41,1.16-6.21,3.61-7.86,6.78.14.37.4.89.51,1.13.03.07.07.14.12.25l.27-.54,1.77-.15s-.86-.53-1-.59c-.13-.06-.24.03-.24.03l-.04.06-.13-.09.33-.51.14.08s.01-.04-.05.07c-.06.11.05.22.05.22l1.76,1.03-.14.2-2.04.19s1.16.55,1.3.6c.12.04.23-.07.23-.07l.09-.11s.1.04.09.06c-.02.03-.3.65-.3.65l-.12-.05s-.03.03.04-.13c.05-.17-.11-.2-.11-.2,0,0-1.26-.58-1.49-.69-.23-.1-.32.12-.32.12h0c.23.44.54,1.03.62,1.16.03.07.1.12.16.18,0,0,0,0,0,.01l.71-.04s.18,0,.23-.09c.06-.13.07-.13.07-.13l.14.04-.14.37c.55.48.6.91.45,1.23,0,0,0,0,0,0,.09.15.18.28.26.37.11-.61.3-1.24.53-1.79l-.03,2.35s-.13,3.8,2.36,7.97h-.03Zm-1.95-11.17v-5.47h8.07v5.47s-8.07,0-8.07,0h0Zm16.39,0h-8.03v-5.47h8.03v5.47h0Zm-8.31,5.55v-5.27h-8.09v2.81s-.02.95.27,2.46h7.82Zm8.31-5.27l.02,2.81s.03.95-.26,2.46h-7.79v-5.27h8.03Zm-8.15,16.42c5.43-3.36,7.28-7.99,7.9-10.89h-15.78c.62,2.9,2.46,7.52,7.88,10.89h0Zm8.58-20.27l.3-.26-.14-.12s-.07.08-.16.15v.24h0Zm.64,12.57l-.31.65.09.06s.02,0,.07-.1c.07-.08.13-.04.13-.04,0,0,1.48.8,1.62.88.15.08.11.15.11.15l-.08.16.09.05.53-1.01-.11-.06s-.02.06-.09.16c-.06.12-.2.07-.2.07l-1.62-.81c-.15-.08-.07-.2-.07-.2,0,0-.1,0-.16.02h0Zm.88,3.06h0c.16-.03.36-.03.36-.03.31-.03.67-.02,1.07.02,1.46-2.21,2.32-4.86,2.32-7.71,0-1.18-.16-2.41-.44-3.52-.42.06-1.68.11-1.98.04-.29-.05-.62.15-.42.63.02.03.06.15.1.32h0c.46-.09.98-.21.98-.21,0,0,.13-.03.09-.2l-.03-.17.19-.04s.16.75.16.76c0,.03.26,1.09-.41,1.29-.5.14-.72-.39-.72-.39-.01-.03-.03-.06-.05-.11h0c.02.16-.02.58-.04.74h0c.61.16,1.41.38,1.41.38v.16s-1.78.73-1.78.73c0,0,0,0,0,.01,0,.08-.03.23-.08.34.05.06,0,.36-.09.67.42.05,1.4.18,1.43.19.06,0,.09-.02.11-.09.01-.06.03-.18.03-.23,0-.03-.02-.14-.15-.16-.14-.02-.26-.02-.26-.02v-.17l.78.04s-.11,1.49-.24,1.83l-.71-.13.03-.13.22.03s.17-.02.19-.11c.03-.09.05-.3.05-.3,0,0-.05-.11-.09-.12-.03,0-1.17-.15-1.52-.2-.11.3-.31.66-.51.91h0s-.05.18.15.23c.2.04,1.67.41,1.67.41,0,0,.14.04.18-.13l.04-.16.17.04s-.19.74-.19.77c0,.02-.27,1.09-.94.94-.53-.09-.47-.67-.47-.67,0,0,0-.08-.08-.04-.07.07-.37.29-1.08.34-.7.09-1.5.21-.87,1.25l.1-.14.1.05-.07.12c-.07.12.04.24.04.24.07.07,1.08,1.48,1.25,1.7h0Zm-1.52-16.5s.07-.07.09-.08c.09-.1.19-.03.19-.03,0,0,.19.23.37.45.19.2-.07.45-.11.48,0,0,.08.09.08.12.03-.03.37-.31.42-.37-.14-.21-.69-.77-1.03-1.13v.56h0Zm-.84-1.44l.04-.06-.87-.66-.09.12.09.09s.14.04-.02.28c-.02.04-.09.12-.16.23h1.01Zm-3.44-.02l.32.02c.05-.19.12-.39.22-.6.28-.51.73-.82.99-.68.25.15.24.68-.06,1.19,0,.03-.04.09-.04.09h.4c.28-.55.21-1.16-.18-1.39-.43-.25-1.09,0-1.44.58-.15.26-.22.55-.21.81v-.02h0Zm-6.99-2.04s-.01,0-.02,0c-.44-.05-.88-.03-1.25-.02l1.12,1.39.15-1.36h0Zm-2.92,21.55l-1.04,1.54s-.02.11.04.17c.05.04.17.11.17.11l-.04.12c-.13-.12-1.3-.6-1.3-1.39,0-.72.93-1.65,1.67-1.16.73.47.89.55.89.55l-.06.13c-.06-.06-.24-.18-.32-.07h0Zm-3.2-.77c.08.09.16.2.23.34.13-.13.26-.26.26-.26,0,0,.08-.08.02-.16-.06-.06-.12-.12-.12-.12,0,0-.09-.05-.18.02-.07.06-.16.14-.2.19h0Zm-1.97-1.59c-.28.94,1.29,1.18,1.36-.03,0-.2-.12-.96.31-1.04.34-.07.53.23.43.61-.09.31-.27.42-.33.45l.13.17.63-.48-.06-.13-.08.05s-.04.03-.04-.03c.01-.06,0-.94-.79-.87-.53.04-.69.53-.7.69,0,.06-.01.83-.01.83.01.35-.7.57-.68-.09,0-.24.24-.39.24-.39l-.07-.11-.49.28.06.11.04-.02.03.02h0Zm1.35-1.73l-1.61.84s-.12.08-.06.2c.06.11.06.17.06.17l-.09.05-.52-1.03.1-.03.09.16s.04.08.17.01c.15-.08,1.67-.79,1.67-.79,0,0,.08-.03.04-.13-.02-.1-.02-.12-.02-.12l.1-.05.43.82-.1.06-.09-.13s-.04-.11-.18-.03h0Zm-.69-1.95h-.02c-.07.04-.22.08-.33.09-.41.04-.81,0-1.07-.1-.45.27-.51.66-.49.78.03.17.08.17.18.14l1.74-.61s.12-.04.07-.15c0-.05-.04-.1-.07-.15h0Zm-.2-6.33c.09.07.17.13.23.18v-.02s.06-.18-.05-.16h-.18Zm.34.28c.1.09.16.16.21.23.03.03.13.17.23.3.12-.2.04-.48-.36-.88l-.08.35h0Zm1.31-3.7c-.43-.33-1.11-.85-1.13-.87-.05-.04-.1-.04-.14.02-.04.05-.12.14-.15.17-.02.03-.05.12.07.22.1.09.2.15.2.15l-.1.13-.63-.44s.82-1.18,1.08-1.4l.57.48-.11.11-.19-.16s-.15-.07-.21,0c-.07.07-.16.2-.16.2,0,0-.02.11.01.14.02,0,.51.39.88.68v.55h0Zm0-2.06l-.17-.17s-.14-.08-.2-.02c-.06.07-.06.09-.06.09l-.11-.13s.32-.35.55-.57v.79h-.01Zm2.03-2.33l-.03-.04-.02.02-.09.07-.02.02.02.03s.02.03.02.05h-.02c-.23-.05-.43-.02-.55.11-.17.13-.21.36-.21.39v.05h.28v-.05s.02-.26.31-.28c.31-.02.47.29.47.29l.02.05.03-.03.15-.12.02-.02-.02-.03-.37-.53h0Zm.36,2.36c-.09.09-.09.28.02.36.01.02.03-.14.14-.15-.03.13.02.26.1.32.03-.14.14-.24.14-.24,0,0,.12.09.12.26.15-.06.24-.22.24-.34.04.05.16.16.13.2.19-.2.09-.41.09-.42.28.05.35-.14.34-.19-.05.05-.15.05-.16,0-.05-.12-.08-.16-.13-.16.07-.03.01-.09.02-.16,0-.02.03-.04.05-.04-.08-.02-.18-.02-.25.03.02-.04.03-.2-.04-.25-.08.02-.15.08-.19.13,0-.05-.04-.14-.13-.18-.09.05-.1.13-.13.18,0,0-.06-.09-.17-.13,0,0-.13.08-.09.25-.09-.13-.25-.07-.25-.07,0,0,.09.04.09.07,0,.07-.05.18.06.24-.13.24-.22.1-.25.07-.05.06-.04.32.23.23h0Zm.4-.08s.07-.02.12-.05c.04.04.09.05.13.06.02.12-.07.32-.36.32.05-.03.18-.13.1-.33h0Zm-.08-.1c.07,0,.12-.06.12-.11,0-.08-.05-.12-.12-.12-.06,0-.1.04-.1.12,0,.05.04.11.1.11h0Zm.4.01c.06,0,.11-.05.11-.11,0-.08-.04-.12-.11-.12-.06,0-.11.04-.11.12,0,.05.05.11.11.11h0Zm-.72,1.8c-.09.07-.09.28.02.36.01,0,.03-.14.14-.15-.03.13.02.28.1.31.03-.13.14-.23.14-.23,0,0,.12.08.12.26.15-.06.24-.22.24-.34.04.06.16.15.13.2.19-.2.09-.4.09-.42.28.06.35-.14.34-.2-.05.07-.15.07-.16.02-.05-.13-.08-.15-.13-.15.07-.04.01-.11.02-.17,0-.02.03-.04.05-.05-.08-.03-.18-.03-.25.03.02-.04.03-.19-.04-.26-.08.02-.15.09-.19.13,0-.05-.04-.13-.13-.17-.09.04-.1.13-.13.17,0,0-.06-.07-.17-.13,0,0-.13.09-.09.26-.09-.13-.25-.06-.25-.06,0,0,.09.04.09.07,0,.06-.05.17.06.23-.13.23-.22.1-.25.08-.05.06-.04.31.23.23h0Zm.29-.23c.06,0,.12-.07.12-.12,0-.07-.06-.12-.12-.12s-.11.05-.11.12c0,.05.05.12.11.12h0Zm.07.09s.08,0,.13-.05c.02.04.09.07.12.08.03.11-.06.3-.36.3.05-.02.17-.12.1-.33h0Zm.33-.09c.06,0,.11-.05.11-.11,0-.06-.05-.12-.11-.12-.06,0-.11.05-.11.12,0,.06.04.11.11.11h0Zm-.69,1.88c-.09.07-.09.28.02.36.01,0,.03-.13.14-.15-.03.14.02.27.1.32.03-.14.14-.23.14-.23,0,0,.12.08.12.25.15-.06.24-.22.24-.33.04.04.16.14.13.19.19-.19.09-.4.09-.42.28.06.35-.15.34-.2-.05.06-.15.06-.16.01-.05-.12-.08-.15-.13-.15.07-.04.01-.1.02-.16,0-.03.03-.05.05-.06-.08-.02-.18-.02-.25.03.02-.04.03-.19-.04-.24-.08,0-.15.08-.19.13,0-.05-.04-.14-.13-.18-.09.04-.1.13-.13.18,0,0-.06-.09-.17-.14,0,0-.13.09-.09.25-.09-.12-.25-.06-.25-.06,0,0,.09.03.09.08,0,.07-.05.16.06.21-.13.26-.22.12-.25.08-.05.07-.04.33.23.24h0Zm.3-.23c.08,0,.12-.04.12-.11,0-.06-.04-.11-.12-.11-.05,0-.11.05-.11.11,0,.07.05.11.11.11h0Zm.08.11s.08-.01.13-.05c.02.03.09.07.12.07.04.12-.06.31-.34.31.05-.02.18-.12.09-.33h0Zm.33-.1c.06,0,.11-.05.11-.11,0-.06-.05-.12-.11-.12-.05,0-.11.05-.11.12,0,.05.06.11.11.11h0Zm6.55-3.59h6.24v4.02h-6.24v-4.02h0Zm5.99,3.74v-3.48h-5.72v3.48h5.72Zm-5.42-3.23h5.1v2.96h-5.1v-2.96h0Zm4.85,2.71v-2.43h-4.6v2.43h4.6Zm-.9-1.91c0-.16-.15-.3-.31-.3-.05,0-.1.02-.16.04-.02-.03-.04-.09-.02-.17-.08.02-.15.17-.15.45,0,.16,0,.54,0,.56,0,.06.01.05,0,.11,0,.02.01.03,0,.05,0,.14-.28.17-.38.17-.03-.09-.11-.11-.17-.17-.02-.04-.01-.08-.01-.11.15.04.24.03.29-.04-.05-.03-.09-.04-.12-.09.1-.01.2-.06.21-.15-.02,0-.05,0-.08,0-.04-.03-.06-.07-.04-.11,0,0-.02-.02-.02-.04.06-.04.14-.08.12-.2-.03,0-.07.06-.12.05,0-.04.02-.12,0-.15-.05.04-.11.06-.16.04-.07-.03-.07-.08-.15-.09,0,.02-.05.05-.07.09.02,0,0,0,0,.03-.04,0-.05.04-.07.07.05-.02.14.07.13.2-.04-.03-.11-.04-.14-.06-.06,0-.14-.06-.14-.11,0-.04.01-.05,0-.06-.01-.02-.04.01-.04.02,0,.07.02.12.09.16.02.02.04.03.07.04.05.04.09.07.1.12-.02.02-.08.04-.1.03-.01-.01-.11-.06-.13-.09-.03.01-.03.01-.07.04.01.04.07.1.07.1-.05.03-.03.03-.12.04-.1-.05-.2-.14-.26-.22-.12-.17-.09-.31-.08-.38.02-.02.02-.05,0-.05,0-.19-.16-.2-.18-.2.03.04.09.04.06.13,0,.02-.03,0-.06.02-.04.01,0,.03-.02.05-.03,0-.04-.05-.06-.05-.02,0-.06,0-.08,0,0-.02-.03-.04-.06-.04-.09,0-.14.05-.15.09.05,0,.08-.04.12-.03.06.03,0,.08.03.13,0,.01.03.02.03.04,0,0-.12,0-.14.09-.04.04-.04.09-.04.14.02-.04.04-.06.09-.08.04,0,.03.02.06.02.04,0,.08.02.12,0,.06.05.06.13-.06.13.08.12.19.11.25.08,0,.06-.09.12-.17.1.09.12.27.09.3.08,0,0,.03.05.03.05-.08.07-.15.08-.19.09-.03,0-.06,0-.11.02h-.03s-.08-.02-.09-.04c-.02-.02-.05-.02-.08,0-.02,0-.02.02-.04,0-.14-.05-.22.07-.24.1.04-.03.18-.07.19,0,.03.06-.06.04-.09.06,0,.02,0,.04,0,.07-.06.05-.06.16,0,.19-.03-.06,0-.09,0-.11.17.12.24-.03.3-.05,0,.03.08.02.08.12.06,0,.2-.09.22-.16,0,0,.12,0,.08.12.27-.05.3-.21.32-.21,0,0,.08.13.26.2.03,0,.05.03.04.07-.02,0-.04,0-.06.03-.02.02-.04.04-.04.07,0,0,.09-.02.15.04.06.07.02.21.13.25.19.08.36.02.43,0,0,.03.03.08.09.09-.01.01-.1.1-.04.15,0,.03-.02.14.13.15-.04-.04-.07-.09-.06-.12.11.03.15-.09.16-.11.01.03.06.1.14.06.13.08.24-.02.26-.06-.04,0-.13.03-.18-.02.02-.03,0-.05,0-.08-.03-.04-.03-.05-.08-.04,0-.03.08-.12-.05-.2,0,.05-.05.11-.11.11.03-.06,0-.19-.09-.2,0,.14-.36.12-.45.04.03-.03.04-.04.03-.12.06,0,.13-.02.18-.03.35-.05.32-.3.32-.35.07-.02.12.04.12.1.17-.16.02-.28-.12-.27v-.47s0-.06,0-.07c0-.06.06-.12.13-.12.06,0,.12.06.12.12,0,.21,0,.64.38.43-.16.03-.18-.05-.18-.11,0-.06,0-.12,0-.19.07.12.48-.15.12-.3.11.12-.04.23-.11.18l-.02-.02h0Zm-1.03.1s0,.03-.03.03c-.02,0-.06-.01-.09-.01-.02-.04,0-.08.02-.11.05.02.06.06.1.09h0Z" class="cls-3"/>
      <path d="m77.2,37.49l-1.03-2.67-.29-.76-.29.76-1.03,2.67-.16.43h.74v.21h-.02c-.16,0-.33.07-.45.18-.13.12-.18.27-.18.45,0,.36.28.64.63.64h-.13v1.68h.15v.75h-.15v1.68h.15v.68h-.15v1.68h.15v4.89c.07.05.29.08.4.08v-4.97h.52v4.94c.11,0,.31-.07.4-.1v-4.85h.12v-.06h9.78v-6.63h-9.39c.1-.12.15-.27.15-.42,0-.18-.06-.32-.19-.45-.11-.11-.28-.18-.44-.18h-.04v-.21h.91l-.17-.43h0Zm7.05,6.37c.11-.05.27-.2.21-.47.14.15.45.04.53-.18-.33.04-.46-.16-.46-.31h.61v-.41h-.13c.04-.63.69-.38.6-.04.91-1.31-.92-1.4-.93.04h-.24c0-.17,0-.53.1-.73.6-1.17-.13-1.56-.29-1.7-.16.14-.88.53-.28,1.7.1.2.1.56.1.73h-.25c0-1.44-1.83-1.35-.94-.04-.08-.33.57-.58.62.04h-.13v.41h.62c0,.15-.13.35-.46.31.08.22.37.32.52.18-.03.27.11.42.2.47h0Zm-2.81,1.5c.1-.05.25-.2.21-.49.13.17.44.04.53-.16-.35.02-.46-.16-.46-.31h.6v-.4h-.14c.06-.64.72-.39.63-.06.9-1.3-.92-1.38-.94.06h-.25c0-.18.01-.53.11-.74.59-1.16-.12-1.55-.29-1.7-.18.15-.88.54-.3,1.7.1.21.12.56.12.74h-.26c0-1.45-1.83-1.36-.93-.06-.09-.32.57-.57.61.06h-.12v.4h.61c0,.15-.12.33-.46.31.07.2.38.33.51.16-.03.28.12.43.22.49h0Zm-2.78-1.5c.08-.05.23-.2.2-.47.14.15.45.04.53-.18-.34.04-.46-.16-.46-.31h.61v-.41h-.14c.06-.63.7-.38.62-.04.9-1.31-.93-1.4-.93.04h-.26c0-.17.02-.53.11-.73.6-1.17-.11-1.56-.27-1.7-.19.14-.89.53-.31,1.7.1.2.1.56.1.73h-.25c0-1.44-1.82-1.35-.93-.04-.08-.33.57-.58.63.04h-.14v.41h.61c0,.15-.12.35-.45.31.08.22.38.32.52.18-.04.27.11.42.23.47h0Zm-3.29,1.62v-.9h.83v.9h-.83Zm0-2.35v-.89h.84v.89h-.84Zm.02-2.44v-.89h.82v.89h-.82Zm1.11-1.68c.12,0,.24-.1.24-.24s-.12-.24-.24-.24h-1.39c-.12,0-.23.11-.23.24,0,.13.12.24.23.24h1.39Zm-.64-3.84l-.86,2.35h1.82l-.95-2.35h0Zm-.32,9.03v-.68h.52v.68h-.52Zm0-2.36v-.75h.52v.75h-.52Zm0-3.7v-.21h.52v.21h-.52Z" class="cls-3"/>
      <path d="m57.16,37.45l-1.04-2.69-.28-.73-.29.73-1.03,2.69-.15.41h.73v.22h-.02c-.16,0-.34.07-.46.19-.11.12-.18.28-.18.45,0,.19.09.37.23.49h-9.01v6.77h9.45v4.73c.08.06.29.17.39.16v-5.02h.54v5.06c.1,0,.29,0,.38-.02v-5.04h.13v-1.69h-.13v-.68h.13v-1.68h-.13v-.76h.13v-1.68c.14-.02.26-.09.36-.18.11-.12.18-.28.18-.45,0-.16-.07-.33-.18-.45-.13-.12-.28-.19-.46-.19h-.04v-.22h.92l-.18-.41h0Zm-1.67,4.34v-.76h.54v.76h-.54Zm-.15,1.28v-.89h.83v.89h-.83Zm.15,1.07v-.68h.54v.68h-.54Zm-.15,1.28v-.88h.83v.88h-.83Zm.15-7.34v-.22h.54v.22h-.54Zm.33-2.98l-.86,2.35h1.81l-.94-2.35h0Zm.63,3.85c.14,0,.24-.11.24-.24,0-.12-.11-.23-.24-.23h-1.38c-.12,0-.24.12-.24.23,0,.13.11.24.24.24h1.38Zm-1.11,1.69v-.91h.83v.91h-.83Zm-9.42-1.17h.03l2.88,2.14h.71v-.25l-2.56-1.89h.67l1.9,1.42v-1.42h.33v2.48h-3.95v-.34h1.88l-1.88-1.4v-.74h0Zm5.13,0h.33v1.42l1.92-1.42h1l-2.92,2.14h1.08l2.47-1.84v.5l-1.8,1.34h1.8v.35h-3.88v-2.49h0Zm3.88,3.65v.39h-1.8l1.8,1.34v.77l-2.84-2.12h-.71v.24l2.58,1.91h-.66l-1.91-1.41v1.41h-.36v-2.55h3.88Zm-5.07,2.55h-.33v-1.41l-1.9,1.41h-1.06l2.9-2.15h-1.03l-2.53,1.89v-.48l1.89-1.41h-1.89v-.39h3.95v2.55h0Z" class="cls-3"/>
    </g>
  </g>
  <rect height="137.57" width="403" class="cls-1"/>
</svg>